<?xml version="1.0" encoding="utf-8"?>
<!-- Generator: Adobe Illustrator 23.0.5, SVG Export Plug-In . SVG Version: 6.00 Build 0)  -->
<svg version="1.2" baseProfile="tiny" id="Capa_1" xmlns="http://www.w3.org/2000/svg" xmlns:xlink="http://www.w3.org/1999/xlink"
	 x="0px" y="0px" viewBox="0 0 153.07 152.93" xml:space="preserve">
<path id="XMLID_3_" fill="#1D70B7" d="M59.63,13.47c11.46-11.25,29.46-11.5,40.22-0.53l40.65,41.29
	c10.79,10.97,10.24,28.98-1.2,40.23l-45.76,45.01c-11.47,11.24-29.47,11.49-40.23,0.55L12.66,98.7C1.9,87.75,2.42,69.76,13.87,58.47
	L59.63,13.47z"/>
<g>
	<g>
		<path fill="#FFFFFF" d="M112.31,76.2H94.67v-2.49h4.76c0.61,0,1.1-0.49,1.1-1.1c0-0.61-0.49-1.1-1.1-1.1h-4.76v-2.49h3.3
			c1.23,0,2.39-0.48,3.26-1.35l7.21-7.21c0.47,0.23,0.99,0.36,1.53,0.36c0.92,0,1.78-0.36,2.43-1.01c0.65-0.65,1.01-1.51,1.01-2.43
			c0-0.92-0.36-1.78-1.01-2.43c-0.65-0.65-1.51-1.01-2.43-1.01s-1.78,0.36-2.43,1.01c-0.65,0.65-1.01,1.51-1.01,2.43
			c0,0.54,0.12,1.06,0.36,1.53l-7.21,7.21c-0.46,0.46-1.06,0.71-1.71,0.71h-3.3v-2.42c0-3.19-2.59-5.78-5.78-5.78h-2.42v-9.7
			c1.36-0.46,2.34-1.75,2.34-3.26c0-1.9-1.54-3.44-3.44-3.44c-1.9,0-3.44,1.54-3.44,3.44c0,1.51,0.98,2.8,2.34,3.26v9.7h-2.49v-4.76
			c0-0.61-0.49-1.1-1.1-1.1s-1.1,0.49-1.1,1.1v4.76H77.1V40.99c0-0.61-0.49-1.1-1.1-1.1s-1.1,0.49-1.1,1.1v17.64h-2.49v-4.76
			c0-0.61-0.49-1.1-1.1-1.1s-1.1,0.49-1.1,1.1v4.76h-2.49v-3.3c0-1.23-0.48-2.39-1.35-3.26l-7.21-7.21
			c0.64-1.29,0.42-2.89-0.65-3.96c-1.34-1.34-3.52-1.34-4.86,0c-1.34,1.34-1.34,3.52,0,4.86c0.67,0.67,1.55,1.01,2.43,1.01
			c0.52,0,1.05-0.12,1.53-0.36l7.21,7.21c0.46,0.46,0.71,1.06,0.71,1.71v3.3h-2.42c-0.49,0-0.97,0.06-1.44,0.18
			c-0.59,0.15-0.94,0.75-0.79,1.33c0.15,0.59,0.75,0.94,1.33,0.79c0.29-0.07,0.59-0.11,0.9-0.11h25.76c1.98,0,3.59,1.61,3.59,3.59
			v25.76c0,0.3-0.04,0.61-0.11,0.9c-0.15,0.59,0.2,1.18,0.79,1.33c0.09,0.02,0.18,0.03,0.27,0.03c0.49,0,0.93-0.33,1.06-0.82
			c0.12-0.47,0.18-0.95,0.18-1.44v-2.42h9.7c0.46,1.36,1.75,2.34,3.26,2.34c1.9,0,3.44-1.54,3.44-3.44s-1.54-3.44-3.44-3.44
			c-1.51,0-2.8,0.98-3.26,2.34h-9.7v-2.49h4.76c0.61,0,1.1-0.49,1.1-1.1s-0.49-1.1-1.1-1.1h-4.76v-2.49h17.64
			c0.61,0,1.1-0.49,1.1-1.1C113.4,76.69,112.91,76.2,112.31,76.2z M109.08,56.51c0.24-0.24,0.55-0.37,0.88-0.37s0.65,0.13,0.88,0.37
			c0.24,0.24,0.37,0.55,0.37,0.88c0,0.33-0.13,0.65-0.37,0.88c-0.24,0.24-0.55,0.37-0.88,0.37s-0.65-0.13-0.88-0.37
			c-0.24-0.24-0.37-0.55-0.37-0.88S108.85,56.74,109.08,56.51z M56.98,44.22c-0.49,0.49-1.28,0.49-1.76,0
			c-0.49-0.49-0.49-1.28,0-1.76c0.24-0.24,0.56-0.36,0.88-0.36c0.32,0,0.64,0.12,0.88,0.36C57.46,42.94,57.46,43.73,56.98,44.22z
			 M85.37,46.92c-0.69,0-1.25-0.56-1.25-1.25c0-0.69,0.56-1.25,1.25-1.25c0.69,0,1.25,0.56,1.25,1.25
			C86.62,46.37,86.06,46.92,85.37,46.92z M107.62,85.42c0.69,0,1.25,0.56,1.25,1.25c0,0.69-0.56,1.25-1.25,1.25
			c-0.69,0-1.25-0.56-1.25-1.25C106.38,85.98,106.94,85.42,107.62,85.42z"/>
	</g>
</g>
<g>
	<g>
		<path fill="#FFFFFF" d="M98.34,108.83c-1.07-1.07-2.67-1.28-3.96-0.65l-7.21-7.21c-0.46-0.46-0.71-1.06-0.71-1.71v-3.3h2.42
			c0.49,0,0.97-0.06,1.44-0.18c0.59-0.15,0.94-0.75,0.79-1.33c-0.15-0.59-0.75-0.94-1.33-0.79c-0.29,0.07-0.59,0.11-0.9,0.11H63.12
			c-1.98,0-3.59-1.61-3.59-3.59V64.41c0-0.3,0.04-0.61,0.11-0.9c0.15-0.59-0.2-1.18-0.79-1.33c-0.59-0.15-1.18,0.2-1.33,0.79
			c-0.12,0.47-0.18,0.96-0.18,1.44v2.42h-9.7c-0.46-1.36-1.75-2.34-3.26-2.34c-1.9,0-3.44,1.54-3.44,3.44s1.54,3.44,3.44,3.44
			c1.51,0,2.8-0.98,3.26-2.34h9.7v2.49h-4.76c-0.61,0-1.1,0.49-1.1,1.1s0.49,1.1,1.1,1.1h4.76v2.49H39.7c-0.61,0-1.1,0.49-1.1,1.1
			s0.49,1.1,1.1,1.1h17.64v2.49h-4.76c-0.61,0-1.1,0.49-1.1,1.1s0.49,1.1,1.1,1.1h4.76v2.49h-3.3c-1.23,0-2.39,0.48-3.26,1.35
			l-7.21,7.21c-0.47-0.23-0.99-0.36-1.53-0.36c-0.92,0-1.78,0.36-2.43,1.01c-0.65,0.65-1.01,1.51-1.01,2.43s0.36,1.78,1.01,2.43
			c0.65,0.65,1.51,1.01,2.43,1.01c0.92,0,1.78-0.36,2.43-1.01c0.65-0.65,1.01-1.51,1.01-2.43c0-0.54-0.12-1.06-0.36-1.53l7.21-7.21
			c0.46-0.46,1.06-0.71,1.71-0.71h3.3v2.42c0,3.19,2.59,5.78,5.78,5.78h2.42v9.7c-1.36,0.46-2.34,1.75-2.34,3.26
			c0,1.9,1.54,3.44,3.44,3.44c1.9,0,3.44-1.54,3.44-3.44c0-1.51-0.98-2.8-2.34-3.26v-9.7h2.49v4.76c0,0.61,0.49,1.1,1.1,1.1
			c0.61,0,1.1-0.49,1.1-1.1v-4.76h2.49v17.64c0,0.61,0.49,1.1,1.1,1.1s1.1-0.49,1.1-1.1V95.96h2.49v4.76c0,0.61,0.49,1.1,1.1,1.1
			c0.61,0,1.1-0.49,1.1-1.1v-4.76h2.49v3.3c0,1.23,0.48,2.39,1.35,3.26l7.21,7.21c-0.64,1.29-0.42,2.89,0.65,3.96
			c0.67,0.67,1.55,1.01,2.43,1.01s1.76-0.33,2.43-1.01C99.68,112.35,99.68,110.17,98.34,108.83z M44.39,69.17
			c-0.69,0-1.25-0.56-1.25-1.25c0-0.69,0.56-1.25,1.25-1.25c0.69,0,1.25,0.56,1.25,1.25C45.63,68.62,45.07,69.17,44.39,69.17z
			 M42.93,98.09c-0.24,0.24-0.55,0.37-0.88,0.37c-0.33,0-0.65-0.13-0.88-0.37s-0.37-0.55-0.37-0.88c0-0.33,0.13-0.65,0.37-0.88
			c0.24-0.24,0.55-0.37,0.88-0.37c0.33,0,0.65,0.13,0.88,0.37c0.24,0.24,0.37,0.55,0.37,0.88C43.29,97.54,43.16,97.85,42.93,98.09z
			 M67.88,108.91c0,0.69-0.56,1.25-1.25,1.25c-0.69,0-1.25-0.56-1.25-1.25c0-0.69,0.56-1.25,1.25-1.25S67.88,108.23,67.88,108.91z
			 M96.79,112.14c-0.49,0.49-1.28,0.49-1.76,0c-0.49-0.49-0.49-1.28,0-1.76c0.24-0.24,0.56-0.36,0.88-0.36s0.64,0.12,0.88,0.36
			C97.28,110.86,97.28,111.65,96.79,112.14z"/>
	</g>
</g>
<g>
	<g>
		<path fill="#FFFFFF" d="M87.64,74.37c0-2.34-1.71-4.33-4.06-4.97c0.07-0.29,0.11-0.58,0.11-0.88c0-2.22-1.97-4.02-4.39-4.02
			c-1.31,0-2.49,0.53-3.29,1.37c-0.8-0.84-1.98-1.37-3.29-1.37c-2.42,0-4.39,1.8-4.39,4.02c0,0.3,0.04,0.6,0.11,0.88
			c-2.35,0.64-4.06,2.63-4.06,4.97c0,1.15,0.41,2.23,1.15,3.12c-0.73,0.95-1.15,2.1-1.15,3.32c0,1.86,1,3.6,2.63,4.68c0,0,0,0,0,0
			c0,2.54,2.26,4.61,5.05,4.61c1.6,0,3.03-0.68,3.95-1.75c0.93,1.06,2.35,1.75,3.95,1.75c2.68,0,4.88-1.92,5.04-4.32
			c1.63-0.94,2.65-2.6,2.65-4.38c0-1.31-0.56-2.57-1.52-3.51C87.08,76.94,87.64,75.68,87.64,74.37z M83.76,78.85
			c1.06,0.56,1.69,1.51,1.69,2.54c0,0.77-0.36,1.51-0.97,2.06c-0.58-1.07-1.59-1.92-2.88-2.32c-0.58-0.18-1.19,0.14-1.37,0.72
			c-0.18,0.58,0.14,1.19,0.72,1.37c1.12,0.35,1.87,1.26,1.87,2.27c0,1.33-1.28,2.42-2.86,2.42c-1.58,0-2.86-1.08-2.86-2.42v-7.03
			c0-1.33,1.28-2.42,2.86-2.42c0.61,0,1.1-0.49,1.1-1.1s-0.49-1.1-1.1-1.1c-1.06,0-2.04,0.3-2.86,0.81v-1.4c0-0.61-0.49-1.1-1.1-1.1
			c-0.61,0-1.1,0.49-1.1,1.1v6.08c-0.37-0.23-0.77-0.42-1.21-0.56c-0.58-0.18-1.19,0.14-1.37,0.72c-0.18,0.58,0.14,1.19,0.72,1.37
			c1.12,0.35,1.87,1.26,1.87,2.27v2.34c0,1.33-1.28,2.42-2.86,2.42c-1.58,0-2.86-1.08-2.86-2.42c0-0.57,0.24-1.13,0.68-1.56
			c0.43-0.43,0.43-1.12,0-1.55s-1.12-0.43-1.55,0c-0.26,0.26-0.49,0.55-0.68,0.85c-0.69-0.65-1.1-1.52-1.1-2.42
			c0-1.62,1.27-3.05,3.1-3.47c0.59-0.14,0.96-0.72,0.82-1.31c-0.14-0.59-0.72-0.96-1.31-0.82c-0.73,0.17-1.41,0.45-2.01,0.82
			c-0.39-0.49-0.6-1.06-0.6-1.66c0-1.65,1.56-2.99,3.49-3c0.01,0,0.02,0,0.03,0c0.25,0,0.5-0.09,0.71-0.26
			c0.42-0.36,0.5-0.96,0.22-1.41c-0.01-0.01-0.02-0.03-0.02-0.04c0-0.01-0.01-0.01-0.01-0.02c-0.02-0.02-0.03-0.05-0.05-0.07
			c0,0,0,0,0,0c-0.18-0.22-0.4-0.57-0.4-1.05c0-1.01,0.99-1.83,2.2-1.83c1.21,0,2.2,0.82,2.2,1.83c0,0.61,0.49,1.1,1.1,1.1
			c0.61,0,1.1-0.49,1.1-1.1c0-1.01,0.99-1.83,2.2-1.83c1.21,0,2.2,0.82,2.2,1.83c0,0.27-0.07,0.5-0.16,0.69
			c-0.62,0.06-1.23,0.21-1.8,0.45c-0.56,0.24-0.82,0.88-0.58,1.44c0.24,0.56,0.88,0.82,1.44,0.58c0.47-0.2,0.98-0.3,1.51-0.31
			c0.01,0,0.02,0,0.03,0c0.01,0,0.02,0,0.03,0c1.93,0.01,3.49,1.35,3.49,3c0,1.04-0.63,1.99-1.69,2.54
			c-0.36,0.19-0.58,0.56-0.58,0.97C83.18,78.29,83.4,78.66,83.76,78.85z"/>
	</g>
</g>
</svg>
