<?xml version="1.0" encoding="utf-8"?>
<!-- Generator: Adobe Illustrator 23.0.5, SVG Export Plug-In . SVG Version: 6.00 Build 0)  -->
<svg version="1.2" baseProfile="tiny" id="Capa_1" xmlns="http://www.w3.org/2000/svg" xmlns:xlink="http://www.w3.org/1999/xlink"
	 x="0px" y="0px" viewBox="0 0 153.07 152.93" xml:space="preserve">
<path id="XMLID_4_" fill="#1D70B7" d="M59.58,13.47C71.04,2.22,89.04,1.97,99.8,12.94l40.65,41.29
	c10.79,10.97,10.24,28.98-1.2,40.23l-45.76,45.01c-11.47,11.24-29.47,11.49-40.23,0.55L12.61,98.7
	C1.85,87.75,2.37,69.76,13.82,58.47L59.58,13.47z"/>
<g>
	<path fill="#FFFFFF" d="M110.12,103.27l0.54-4.35c0.41-3.27,0.62-6.6,0.62-9.89c0-3.41-1.41-6.5-3.67-8.72V65.79h-1.74
		c-0.63,0-1.17-0.45-1.3-1.08c-0.12-0.61,0.21-1.23,0.79-1.47l1.61-0.67l-3.74-9.04l-1.61,0.67c-0.58,0.24-1.25,0.03-1.61-0.5
		c-0.35-0.52-0.28-1.22,0.17-1.67l1.23-1.23l-6.91-6.91l-1.23,1.23c-0.44,0.45-1.15,0.51-1.67,0.16c-0.53-0.35-0.73-1.03-0.49-1.61
		l0.67-1.6l-9.04-3.74l-0.66,1.6c-0.24,0.58-0.87,0.92-1.5,0.79c-0.62-0.12-1.06-0.66-1.06-1.29v-1.74h-9.78v1.74
		c0,0.63-0.45,1.17-1.08,1.3c-0.61,0.12-1.23-0.21-1.47-0.79l-0.66-1.61l-9.04,3.74l0.67,1.6c0.24,0.59,0.04,1.26-0.49,1.62
		c-0.53,0.35-1.23,0.28-1.68-0.17l-1.22-1.22l-6.91,6.91l1.22,1.23c0.45,0.45,0.52,1.16,0.16,1.69c-0.35,0.52-1.02,0.73-1.6,0.49
		l-1.61-0.67l-3.74,9.04l1.59,0.66c0.59,0.24,0.92,0.87,0.8,1.5c-0.12,0.61-0.67,1.06-1.3,1.06h-1.73v12.06
		c-1.47,1.04-2.44,2.75-2.44,4.69c0,1.06,0.29,2.07,0.81,2.94c-0.52,0.86-0.81,1.85-0.81,2.87c0,2.36,1.5,4.45,3.73,5.22
		c0.25,2.08,1.38,3.88,3,5.05l-0.4,1.6l-2.16,0.54c-1.54,0.38-2.94,1.18-4.05,2.29c-1.65,1.65-2.56,3.84-2.56,6.17v4.23h75.8v-4.23
		C112.5,107,111.65,104.89,110.12,103.27L110.12,103.27z M54.05,102.56L55.8,103l-1.67,2.15l-1.86-1.4L54.05,102.56z M50.15,105.22
		l2.48,1.86l-2.48,3.18l-2.48-3.18L50.15,105.22z M58.18,103.92c0.41,0.25,0.79,0.54,1.13,0.89c1.19,1.19,1.84,2.76,1.84,4.44v1.78
		h-8.5L58.18,103.92z M63.6,109.24c0-1.68,0.65-3.26,1.84-4.44c0.34-0.34,0.73-0.63,1.13-0.89l5.53,7.11h-8.5V109.24z M67.27,90.39
		v0.17c-0.33-0.54-0.6-1.11-0.8-1.7c-0.28-0.83-0.42-1.7-0.42-2.59v-0.92c0-3.37,2.74-6.11,6.11-6.11h4.89
		c3.37,0,6.11,2.74,6.11,6.11v0.92c0,0.88-0.14,1.75-0.42,2.59c-0.2,0.6-0.47,1.17-0.8,1.7v-0.32c0-2.02-1.65-3.67-3.67-3.67H74.6
		c-0.67,0-1.22-0.55-1.22-1.22s0.55-1.22,1.22-1.22h1.22v-2.44H74.6c-1.82,0-3.34,1.34-3.62,3.08
		C68.75,85.72,67.27,87.91,67.27,90.39L67.27,90.39z M70.93,76.89c-0.86,0.12-1.68,0.38-2.44,0.74v-3.28h2.44V76.89z M80.71,77.63
		c-0.76-0.36-1.58-0.61-2.45-0.74v-2.54h2.45V77.63z M69.71,90.39c0-1.31,0.69-2.48,1.76-3.13c0.65,1.06,1.81,1.76,3.13,1.76h3.67
		c0.67,0,1.22,0.55,1.22,1.22v2.44c0,2.7-2.19,4.89-4.89,4.89s-4.89-2.19-4.89-4.89V90.39z M74.6,105.22l2.48,1.86l-2.48,3.18
		l-2.48-3.18L74.6,105.22z M78.58,105.15l-1.86-1.4l1.78-1.19l1.75,0.44L78.58,105.15z M74.6,100.02c0.7,0,1.38-0.11,2.03-0.29
		l0.24,0.98l-2.27,1.51l-2.27-1.51l0.24-0.98C73.22,99.92,73.9,100.02,74.6,100.02L74.6,100.02z M70.71,102.56l1.78,1.19l-1.86,1.4
		L68.96,103L70.71,102.56z M82.63,103.92c0.41,0.25,0.79,0.54,1.13,0.89c1.19,1.19,1.84,2.76,1.84,4.44v1.78h-8.5L82.63,103.92z
		 M88.05,109.24c0-1.68,0.65-3.26,1.84-4.44c0.34-0.34,0.73-0.63,1.13-0.89l5.53,7.11h-8.5V109.24z M96.8,107.36h4.51l-2.26,2.9
		L96.8,107.36z M103.21,104.91H94.9L93.41,103l0.14-0.04c1.65-0.41,2.94-1.64,3.46-3.24c0.65,0.19,1.34,0.3,2.05,0.3
		c0.71,0,1.4-0.11,2.05-0.3c0.52,1.6,1.81,2.83,3.45,3.24l0.14,0.04L103.21,104.91z M99.05,97.58c-2.7,0-4.89-2.19-4.89-4.89v-2.29
		c0-1.69,1.14-3.15,2.78-3.56l0.1-0.03c0.8,0.78,1.85,1.33,3.02,1.49l2.83,0.4c0.6,0.08,1.05,0.61,1.05,1.21v2.77
		C103.94,95.39,101.75,97.58,99.05,97.58z M108.83,89.02c0,3.19-0.2,6.42-0.6,9.59l-0.37,2.94c-0.62-0.33-1.28-0.6-1.98-0.77
		l-0.74-0.18c-0.88-0.22-1.56-0.9-1.78-1.78l-0.05-0.18c1.85-1.33,3.06-3.5,3.06-5.95v-2.77c0-1.81-1.35-3.37-3.15-3.63l-2.83-0.4
		c-1.47-0.21-2.58-1.49-2.58-2.98v-1.22h-2.44v1.22c0,0.61,0.1,1.21,0.3,1.76c-2.36,0.89-3.96,3.15-3.96,5.72v2.29
		c0,2.45,1.21,4.61,3.06,5.95l-0.04,0.18c-0.22,0.88-0.9,1.56-1.78,1.78l-0.74,0.18c-0.69,0.17-1.35,0.44-1.98,0.77l-0.37-2.94
		c-0.4-3.17-0.6-6.4-0.6-9.59c0-5.39,4.39-9.78,9.78-9.78S108.83,83.63,108.83,89.02L108.83,89.02z M47.03,65.2
		c0.3-1.52-0.37-3.05-1.62-3.89l1.92-4.64c1.47,0.3,3.03-0.31,3.9-1.6c0.86-1.29,0.83-2.97-0.01-4.22l3.56-3.56
		c1.25,0.85,2.93,0.88,4.22,0.01c1.29-0.86,1.9-2.42,1.6-3.9l4.64-1.92c0.83,1.26,2.36,1.92,3.89,1.62c1.52-0.3,2.69-1.51,2.97-2.99
		h5.02c0.28,1.48,1.45,2.69,2.98,2.99c1.52,0.3,3.05-0.37,3.88-1.62l4.64,1.92c-0.3,1.48,0.31,3.04,1.61,3.9
		c1.29,0.86,2.96,0.83,4.21-0.01l3.55,3.55c-0.85,1.25-0.88,2.92-0.01,4.23c0.86,1.29,2.42,1.9,3.89,1.59l1.92,4.64
		c-1.26,0.83-1.93,2.36-1.62,3.89c0.3,1.52,1.5,2.68,2.99,2.97v1.87l-5.09-2.23c-1.44-12.84-12.47-22.8-25.47-22.8
		s-24.02,9.96-25.47,22.8l-5.09,2.23v-1.87C45.52,67.88,46.73,66.72,47.03,65.2L47.03,65.2z M61.15,62.55l-9.41,4.11
		c1.92-10.93,11.58-19.21,22.85-19.21c3.83,0,7.48,0.97,10.7,2.66l-24.15,3.62V62.55z M63.6,55.84l22.01-3.3v2.42l-22.01,3.3V55.84z
		 M88.05,51.83c4.84,3.47,8.33,8.73,9.41,14.84l-9.41-4.11V51.83z M44.04,72.71l17.12-7.49v16.47h2.45V60.73l22.01-3.3v24.25h2.44
		V65.22l17.12,7.49v5.74c-0.77-0.45-1.58-0.82-2.45-1.09v-3.01h-2.44v2.51c-0.4-0.04-0.81-0.06-1.22-0.06s-0.82,0.02-1.22,0.06
		v-4.95h-2.45v5.45c-0.86,0.27-1.68,0.64-2.44,1.09v-8.99h-2.44v10.84c-2.26,2.22-3.67,5.3-3.67,8.72c0,3.29,0.21,6.62,0.62,9.89
		l0.54,4.35c-0.45,0.47-0.83,0.99-1.16,1.54c-0.37-0.62-0.81-1.21-1.33-1.73c-1.12-1.12-2.52-1.91-4.05-2.29l-2.16-0.54l-0.4-1.6
		c1.36-0.98,2.37-2.41,2.81-4.08l0.62-0.59c1.25-1.19,2.21-2.69,2.75-4.33c0.36-1.08,0.55-2.22,0.55-3.36v-0.92
		c0-2.33-0.94-4.43-2.44-5.98v-7.47h-7.34v4.89h-2.45v-4.89h-7.34v7.47c-1.51,1.54-2.44,3.65-2.44,5.98v0.92
		c0,1.15,0.18,2.28,0.55,3.36c0.55,1.64,1.5,3.14,2.75,4.33l0.62,0.59c0.44,1.67,1.45,3.1,2.81,4.08l-0.4,1.6l-2.16,0.54
		c-1.54,0.38-2.94,1.18-4.05,2.29c-0.52,0.52-0.96,1.11-1.33,1.73c-0.37-0.62-0.81-1.21-1.33-1.73c-1.12-1.12-2.52-1.91-4.05-2.29
		l-2.16-0.54l-0.4-1.6c1.36-0.98,2.37-2.41,2.81-4.08l0.62-0.59c1.25-1.19,2.21-2.69,2.75-4.33c0.36-1.08,0.55-2.21,0.55-3.36
		c0-2.44-0.93-4.65-2.44-6.33V69.46h-2.45v8.52c-0.76-0.42-1.58-0.74-2.45-0.94v-5.14h-2.44v4.89h-2.45v-2.45h-2.45v2.45h-1.58
		c-0.3,0-0.58,0.04-0.87,0.09V72.71z M44.91,79.24h6.77c3.88,0,7.03,3.16,7.03,7.03c0,0.88-0.14,1.75-0.42,2.59
		c-0.2,0.6-0.47,1.17-0.8,1.7v-0.32c0-2.02-1.65-3.67-3.67-3.67h-3.67c-0.67,0-1.22-0.55-1.22-1.22s0.55-1.22,1.22-1.22h1.22v-2.44
		h-1.22c-1.82,0-3.34,1.34-3.62,3.08c-0.74,0.31-1.39,0.78-1.93,1.33l-1.17-0.59c-1.13-0.56-1.83-1.7-1.83-2.96
		C41.59,80.73,43.08,79.24,44.91,79.24L44.91,79.24z M41.59,88.36c0-0.34,0.06-0.68,0.17-0.99c0.18,0.12,0.37,0.23,0.56,0.33
		l0.92,0.46c-0.27,0.7-0.44,1.45-0.44,2.23v0.42C42.06,90.25,41.59,89.35,41.59,88.36z M45.26,90.39c0-1.31,0.69-2.48,1.76-3.13
		c0.65,1.06,1.81,1.76,3.13,1.76h3.67c0.67,0,1.22,0.55,1.22,1.22v2.45c0,2.7-2.19,4.89-4.89,4.89c-2.7,0-4.89-2.19-4.89-4.89V90.39
		z M50.15,100.02c0.7,0,1.38-0.11,2.03-0.29l0.24,0.98l-2.27,1.51l-2.27-1.51l0.24-0.98C48.77,99.92,49.45,100.02,50.15,100.02z
		 M46.26,102.56l1.78,1.19l-1.86,1.4L44.51,103L46.26,102.56z M39.15,109.24c0-1.68,0.65-3.26,1.84-4.44
		c0.34-0.34,0.73-0.63,1.13-0.89l5.53,7.11h-8.5V109.24z M110.05,111.03h-8.5l5.53-7.11c0.41,0.25,0.79,0.54,1.13,0.89
		c1.19,1.19,1.84,2.76,1.84,4.44V111.03z"/>
	<path fill="#FFFFFF" d="M73.38,62.13h-7.34v7.34h7.34V62.13z M70.93,67.02h-2.44v-2.44h2.44V67.02z"/>
	<path fill="#FFFFFF" d="M83.16,62.13h-7.34v7.34h7.34V62.13z M80.71,67.02h-2.45v-2.44h2.45V67.02z"/>
</g>
</svg>
