<?xml version="1.0" encoding="utf-8"?>
<!-- Generator: Adobe Illustrator 23.0.5, SVG Export Plug-In . SVG Version: 6.00 Build 0)  -->
<svg version="1.2" baseProfile="tiny" id="Capa_1" xmlns="http://www.w3.org/2000/svg" xmlns:xlink="http://www.w3.org/1999/xlink"
	 x="0px" y="0px" viewBox="0 0 153.07 152.93" xml:space="preserve">
<path id="XMLID_1_" fill="#1D70B7" d="M59.58,13.47C71.04,2.22,89.04,1.97,99.8,12.94l40.65,41.29
	c10.79,10.97,10.24,28.98-1.2,40.23l-45.76,45.01c-11.47,11.24-29.47,11.49-40.23,0.55L12.61,98.7
	C1.85,87.75,2.37,69.76,13.82,58.47L59.58,13.47z"/>
<g>
	<path fill="#FFFFFF" d="M53.76,62.57l5.59,2.63v8.85c0,0.48,0.27,0.92,0.7,1.13l15.15,7.57c0.18,0.09,0.37,0.13,0.56,0.13
		c0.19,0,0.39-0.04,0.56-0.13l15.15-7.57c0.43-0.21,0.7-0.65,0.7-1.13V65.2l3.79-1.78v8.99l-2.31,3.47
		c-0.39,0.58-0.23,1.36,0.35,1.75c0.22,0.14,0.46,0.21,0.7,0.21c0.41,0,0.81-0.2,1.05-0.56l1.47-2.21l1.47,2.21
		c0.24,0.36,0.64,0.56,1.05,0.56c0.24,0,0.48-0.07,0.7-0.21c0.58-0.39,0.74-1.17,0.35-1.75l-2.31-3.47V61.42
		c0-0.15-0.04-0.3-0.09-0.44c-0.02-0.04-0.03-0.08-0.05-0.11c-0.05-0.1-0.11-0.19-0.19-0.28c-0.02-0.03-0.04-0.05-0.07-0.08
		c-0.1-0.09-0.2-0.17-0.33-0.23l-21.46-10.1c-0.34-0.16-0.73-0.16-1.08,0l-21.46,10.1c-0.44,0.21-0.72,0.65-0.72,1.14
		S53.31,62.36,53.76,62.57z M89.64,73.27l-13.89,6.94l-13.89-6.94v-6.88l12.62,5.94v2.99c0,0.7,0.57,1.26,1.26,1.26
		c0.7,0,1.26-0.57,1.26-1.26v-2.99l12.62-5.94V73.27z M75.76,52.72l15.81,7.44H77.02V58.9c0-0.7-0.57-1.26-1.26-1.26
		c-0.7,0-1.26,0.57-1.26,1.26v5.05c0,0.7,0.57,1.26,1.26,1.26c0.7,0,1.26-0.57,1.26-1.26v-1.26h14.55l-1.2,0.57c0,0,0,0,0,0
		l-14.61,6.88l-18.5-8.7L75.76,52.72z"/>
	<path fill="#FFFFFF" d="M108.58,39.96H42.93c-2.79,0-5.05,2.27-5.05,5.05v41.66v6.31c0,2.79,2.27,5.05,5.05,5.05h25.21
		c-0.29,5.02-2.4,7.57-6.27,7.57h-2.52c-2.09,0-3.79,1.7-3.79,3.79c0,2.09,1.7,3.79,3.79,3.79h32.82c2.09,0,3.79-1.7,3.79-3.79
		c0-2.09-1.7-3.79-3.79-3.79h-2.52c-3.88,0-5.98-2.55-6.27-7.57h25.21c2.79,0,5.05-2.27,5.05-5.05v-6.31V45.01
		C113.63,42.23,111.36,39.96,108.58,39.96z M40.41,45.01c0-1.39,1.13-2.53,2.53-2.53h65.65c1.39,0,2.53,1.13,2.53,2.53v40.4h-2.52
		V46.28c0-0.7-0.57-1.26-1.26-1.26H44.19c-0.7,0-1.26,0.57-1.26,1.26v39.14h-2.52V45.01z M106.06,85.41h-60.6V47.54h60.6V85.41z
		 M93.43,109.4c0,0.7-0.57,1.26-1.26,1.26H59.34c-0.7,0-1.26-0.57-1.26-1.26s0.57-1.26,1.26-1.26h2.52h27.77h2.52
		C92.86,108.14,93.43,108.7,93.43,109.4z M83.5,105.61H68.02c1.56-1.72,2.47-4.29,2.65-7.57h10.17
		C81.02,101.33,81.94,103.89,83.5,105.61z M111.11,92.99c0,1.39-1.13,2.53-2.53,2.53H82.07H69.44H42.93c-1.39,0-2.53-1.13-2.53-2.53
		v-5.05h3.79h63.12h3.79V92.99z"/>
	<path fill="#FFFFFF" d="M79.54,90.46h-7.57c-0.7,0-1.26,0.57-1.26,1.26c0,0.7,0.57,1.26,1.26,1.26h7.57c0.7,0,1.26-0.57,1.26-1.26
		C80.81,91.03,80.24,90.46,79.54,90.46z"/>
</g>
</svg>
