<?xml version="1.0" encoding="utf-8"?>
<!-- Generator: Adobe Illustrator 23.0.5, SVG Export Plug-In . SVG Version: 6.00 Build 0)  -->
<svg version="1.2" baseProfile="tiny" id="Capa_1" xmlns="http://www.w3.org/2000/svg" xmlns:xlink="http://www.w3.org/1999/xlink"
	 x="0px" y="0px" viewBox="0 0 153.07 152.93" overflow="visible" xml:space="preserve">
<path id="XMLID_2_" fill="#1D70B7" d="M60.8,13.47c11.46-11.25,29.46-11.5,40.22-0.53l40.65,41.29
	c10.79,10.97,10.24,28.98-1.2,40.23l-45.76,45.01c-11.47,11.24-29.47,11.49-40.23,0.55L13.84,98.7
	C3.07,87.75,3.59,69.76,15.04,58.47L60.8,13.47z"/>
<g>
	<rect x="76.69" y="106.46" fill="#FFFFFF" width="7.03" height="2.34"/>
	<path fill="#FFFFFF" d="M107.14,57.19c-3.27,0-5.93,2.66-5.93,5.93s2.66,5.93,5.93,5.93c3.27,0,5.93-2.66,5.93-5.93
		S110.41,57.19,107.14,57.19z M107.14,66.56c-1.9,0-3.44-1.54-3.44-3.44c0-1.9,1.54-3.44,3.44-3.44c1.9,0,3.44,1.54,3.44,3.44
		C110.58,65.02,109.04,66.56,107.14,66.56z"/>
	<path fill="#FFFFFF" d="M120.42,58.75l-1.51-0.51l0.71-1.43c0.24-0.48,0.15-1.06-0.23-1.44l-4.51-4.51
		c-0.38-0.38-0.96-0.47-1.44-0.23l-1.43,0.71l-0.5-1.51c-0.17-0.51-0.65-0.85-1.18-0.85h-6.37c-0.54,0-1.01,0.34-1.18,0.85
		l-0.5,1.51l-1.43-0.71c-0.48-0.24-1.06-0.15-1.44,0.23l-4.51,4.51c-0.38,0.38-0.47,0.96-0.23,1.44l0.22,0.44h-3.71
		c-2.5-9.55-11.27-16.4-21.24-16.4h-0.57c-12.11,0-21.97,9.86-21.97,21.97c0,7.16,3.5,13.89,9.37,18c1.47,1.03,2.34,2.71,2.34,4.5
		v0.05h-7.84l-4.39,11.71h4.03v10.54c0,3.23,2.63,5.86,5.86,5.86h25.77c3.23,0,5.86-2.63,5.86-5.86V97.09h4.03l-4.39-11.71H80.2
		v-0.04c0-1.79,0.88-3.47,2.34-4.5c4.11-2.87,7.07-7.06,8.47-11.86h3.87l-0.22,0.44c-0.24,0.48-0.15,1.06,0.23,1.44l4.51,4.51
		c0.38,0.38,0.96,0.47,1.44,0.23l1.43-0.71l0.5,1.52c0.17,0.51,0.64,0.85,1.18,0.85h6.37c0.54,0,1.01-0.34,1.18-0.85l0.5-1.51
		l1.43,0.71c0.48,0.24,1.06,0.15,1.44-0.23l4.51-4.51c0.38-0.38,0.47-0.96,0.23-1.44L118.91,68l1.52-0.51
		c0.51-0.17,0.85-0.65,0.85-1.18v-6.37C121.27,59.4,120.93,58.92,120.42,58.75z M93.06,59.61c-0.03,0.11-0.05,0.21-0.05,0.33v2.02
		H80.2v-2.34L93.06,59.61z M58.12,78.91L58.12,78.91c-5.24-3.67-8.37-9.68-8.37-16.08c0-10.82,8.81-19.63,19.63-19.63h0.57
		c8.7,0,16.38,5.83,18.82,14.06h-9.94l-8.47,3.18c-1.11,0.42-1.86,1.49-1.86,2.68h-1.87l-0.22-2.72c-0.19-2.42-2.24-4.31-4.67-4.31
		h-0.27c-2.58,0-4.69,2.1-4.69,4.69c0,2.58,2.1,4.69,4.69,4.69h3l1.59,19.91h-4.59v-0.04C61.46,82.78,60.21,80.38,58.12,78.91z
		 M77.86,60.13v5.99l-6.69-2.51c-0.2-0.08-0.34-0.27-0.34-0.49c0-0.22,0.13-0.41,0.34-0.49L77.86,60.13z M64.27,63.12h-2.81
		c-1.29,0-2.34-1.05-2.34-2.34c0-1.29,1.05-2.34,2.34-2.34h0.27c1.21,0,2.24,0.95,2.33,2.16L64.27,63.12z M50.26,94.75l2.64-7.03
		h12.72l-2.64,7.03H50.26z M67.32,111.15H56.77c-1.94,0-3.51-1.58-3.51-3.51V97.09h11.35l2.7-7.21V111.15z M66.8,65.46h2.92
		c0.19,0.13,0.4,0.25,0.62,0.34l2.08,0.78l-1.5,18.8H68.4L66.8,65.46z M86.06,107.63c0,1.94-1.58,3.51-3.51,3.51H69.66V89.89
		l2.7,7.21h13.7V107.63z M86.42,87.72l2.64,7.03H73.98l-2.64-7.03H86.42z M81.2,78.91c-2.09,1.47-3.34,3.86-3.34,6.42v0.04h-4.59
		l1.43-17.94l4.11,1.54h9.76C87.25,72.99,84.68,76.48,81.2,78.91z M80.2,66.64v-2.34h12.81v2.01c0,0.11,0.02,0.22,0.05,0.33H80.2z
		 M118.78,65.41l-2.03,0.68c-0.34,0.11-0.62,0.37-0.76,0.7c-0.14,0.33-0.12,0.71,0.04,1.03l0.95,1.91l-3.24,3.24l-1.91-0.96
		c-0.32-0.16-0.7-0.17-1.03-0.04c-0.33,0.14-0.59,0.41-0.7,0.76l-0.67,2.03h-4.58l-0.67-2.03c-0.11-0.34-0.37-0.62-0.7-0.76
		c-0.33-0.14-0.71-0.12-1.03,0.04l-1.91,0.96l-3.24-3.24l0.95-1.91c0.16-0.32,0.17-0.7,0.04-1.03c-0.14-0.33-0.41-0.59-0.76-0.7
		l-2.03-0.68v-4.58l2.03-0.68c0.34-0.11,0.62-0.37,0.76-0.7c0.14-0.33,0.12-0.71-0.04-1.03l-0.95-1.91l3.24-3.24l1.91,0.96
		c0.32,0.16,0.7,0.17,1.03,0.04c0.33-0.14,0.59-0.41,0.7-0.76l0.67-2.03h4.58l0.67,2.03c0.11,0.34,0.37,0.62,0.7,0.76
		c0.33,0.14,0.71,0.12,1.03-0.04l1.91-0.96l3.24,3.24l-0.95,1.91c-0.16,0.32-0.17,0.7-0.04,1.03c0.14,0.33,0.41,0.59,0.76,0.7
		l2.03,0.68V65.41z"/>
</g>
</svg>
