<svg id="Capa_1" data-name="Capa 1" xmlns="http://www.w3.org/2000/svg" viewBox="0 0 686.27 259.46"><defs><style>.cls-1{fill:#fff;}.cls-2{fill:#aec90d;}.cls-3{fill:#1d71b8;}</style></defs><title>isologotipo modificado (2) [Recuperado]</title><path class="cls-1" d="M66.84,181.15H60.23V199H57.85V181.15H51.23V179H66.84Z"/><path class="cls-1" d="M77.56,179H90.15v2.2H79.94v6.28h9.53v2.21H79.94v7.13H90.66V199H77.56Z"/><path class="cls-1" d="M116.29,183.08a5.82,5.82,0,0,0-2.24-1.83,6.65,6.65,0,0,0-2.77-.61,7,7,0,0,0-3.07.68,7.78,7.78,0,0,0-2.42,1.83,8.34,8.34,0,0,0-1.58,2.66,8.87,8.87,0,0,0-.57,3.15,9.21,9.21,0,0,0,.57,3.27,8.25,8.25,0,0,0,1.57,2.63,7.56,7.56,0,0,0,2.4,1.77,7.35,7.35,0,0,0,3.1.65,7.23,7.23,0,0,0,3.28-.72,7.67,7.67,0,0,0,2.52-2.08l1.78,1.5a8.15,8.15,0,0,1-3.27,2.65,10.43,10.43,0,0,1-4.31.85,10.19,10.19,0,0,1-4-.79,9.8,9.8,0,0,1-5.38-5.51,11.78,11.78,0,0,1,0-8.35,9.78,9.78,0,0,1,5.33-5.57,10,10,0,0,1,4.1-.82,10.69,10.69,0,0,1,3.92.73,7.27,7.27,0,0,1,3.15,2.41Z"/><path class="cls-1" d="M130.09,179h3l11.59,16.63h.06V179h2.38v20h-3l-11.6-16.63h-.05V199h-2.38Z"/><path class="cls-1" d="M169.32,199.48a10.8,10.8,0,0,1-4.2-.79,10.17,10.17,0,0,1-3.31-2.19,9.92,9.92,0,0,1-2.18-3.34,11.84,11.84,0,0,1,0-8.4,10,10,0,0,1,2.18-3.34,10.17,10.17,0,0,1,3.31-2.19,11.56,11.56,0,0,1,8.4,0,10.17,10.17,0,0,1,3.31,2.19,10,10,0,0,1,2.18,3.34,11.7,11.7,0,0,1,0,8.4,9.92,9.92,0,0,1-2.18,3.34,10.17,10.17,0,0,1-3.31,2.19A10.8,10.8,0,0,1,169.32,199.48Zm0-2.2a7.84,7.84,0,0,0,3.21-.65,7.53,7.53,0,0,0,2.5-1.79,8.09,8.09,0,0,0,1.63-2.64,9.34,9.34,0,0,0,0-6.48,8.09,8.09,0,0,0-1.63-2.64,7.36,7.36,0,0,0-2.5-1.78,8.14,8.14,0,0,0-6.42,0,7.36,7.36,0,0,0-2.5,1.78,8.09,8.09,0,0,0-1.63,2.64,9.34,9.34,0,0,0,0,6.48,8.09,8.09,0,0,0,1.63,2.64,7.53,7.53,0,0,0,2.5,1.79A7.84,7.84,0,0,0,169.32,197.28Z"/><path class="cls-1" d="M191.52,179h2.38v17.82h9.16V199H191.52Z"/><path class="cls-1" d="M222.89,199.48a10.87,10.87,0,0,1-4.2-.79,10.28,10.28,0,0,1-3.31-2.19,9.75,9.75,0,0,1-2.17-3.34,11.7,11.7,0,0,1,0-8.4,9.84,9.84,0,0,1,2.17-3.34,10.28,10.28,0,0,1,3.31-2.19,11.56,11.56,0,0,1,8.4,0,10.07,10.07,0,0,1,3.31,2.19,9.87,9.87,0,0,1,2.18,3.34,11.7,11.7,0,0,1,0,8.4,9.77,9.77,0,0,1-2.18,3.34,10.07,10.07,0,0,1-3.31,2.19A10.8,10.8,0,0,1,222.89,199.48Zm0-2.2a7.84,7.84,0,0,0,3.21-.65,7.67,7.67,0,0,0,2.51-1.79,8.06,8.06,0,0,0,1.62-2.64,9.34,9.34,0,0,0,0-6.48,8.06,8.06,0,0,0-1.62-2.64,7.5,7.5,0,0,0-2.51-1.78,8.14,8.14,0,0,0-6.42,0,7.46,7.46,0,0,0-2.5,1.78,8.09,8.09,0,0,0-1.63,2.64,9.34,9.34,0,0,0,0,6.48,8.09,8.09,0,0,0,1.63,2.64,7.63,7.63,0,0,0,2.5,1.79A7.84,7.84,0,0,0,222.89,197.28Z"/><path class="cls-1" d="M262.12,197.62a14.09,14.09,0,0,1-3.63,1.41,16.76,16.76,0,0,1-3.86.45,11.67,11.67,0,0,1-4.3-.76,10.12,10.12,0,0,1-3.38-2.15,9.69,9.69,0,0,1-2.22-3.32,11.22,11.22,0,0,1-.79-4.29,10.9,10.9,0,0,1,.83-4.31,9.77,9.77,0,0,1,2.31-3.31,10.58,10.58,0,0,1,3.42-2.14,11.41,11.41,0,0,1,4.21-.76,12.44,12.44,0,0,1,3.81.59,8.23,8.23,0,0,1,3.26,2L260,182.94a6.7,6.7,0,0,0-2.47-1.7,7.79,7.79,0,0,0-3-.6,8,8,0,0,0-3.19.63,7.72,7.72,0,0,0-4.26,4.35,9.37,9.37,0,0,0,0,6.65,7.89,7.89,0,0,0,1.7,2.64,7.47,7.47,0,0,0,2.61,1.74,8.76,8.76,0,0,0,3.37.63,11.63,11.63,0,0,0,2.55-.3,10.74,10.74,0,0,0,2.43-.86V190h-4.61v-2.21h7Z"/><path class="cls-1" d="M277.2,173.46h3.11l-4,4.07h-2ZM275,179h2.38v20H275Z"/><path class="cls-1" d="M296.8,179H299l8.51,20h-2.77l-2-4.92h-10L290.66,199H288Zm1.08,3.05h-.06l-4.16,9.85h8.18Z"/><path class="cls-1" d="M333.91,179H346.5v2.2H336.29v6.28h9.53v2.21h-9.53v7.13H347V199h-13.1Z"/><path class="cls-1" d="M374.39,179h2.37v20h-2.37Z"/><path class="cls-1" d="M389.66,179h3l11.6,16.63h.05V179h2.38v20h-3l-11.6-16.63h0V199h-2.38Z"/><path class="cls-1" d="M419.59,179h3l11.59,16.63h.06V179h2.37v20h-3L422,182.34H422V199h-2.37Z"/><path class="cls-1" d="M458.82,199.48a10.8,10.8,0,0,1-4.2-.79,10.17,10.17,0,0,1-3.31-2.19,9.92,9.92,0,0,1-2.18-3.34,11.7,11.7,0,0,1,0-8.4,10,10,0,0,1,2.18-3.34,10.17,10.17,0,0,1,3.31-2.19,11.56,11.56,0,0,1,8.4,0,10.17,10.17,0,0,1,3.31,2.19,10,10,0,0,1,2.18,3.34,11.84,11.84,0,0,1,0,8.4,9.92,9.92,0,0,1-2.18,3.34,10.17,10.17,0,0,1-3.31,2.19A10.8,10.8,0,0,1,458.82,199.48Zm0-2.2a7.84,7.84,0,0,0,3.21-.65,7.63,7.63,0,0,0,2.5-1.79,8.09,8.09,0,0,0,1.63-2.64,9.34,9.34,0,0,0,0-6.48,8.09,8.09,0,0,0-1.63-2.64,7.46,7.46,0,0,0-2.5-1.78,8.14,8.14,0,0,0-6.42,0,7.36,7.36,0,0,0-2.5,1.78,7.92,7.92,0,0,0-1.63,2.64,9.34,9.34,0,0,0,0,6.48,7.92,7.92,0,0,0,1.63,2.64,7.53,7.53,0,0,0,2.5,1.79A7.84,7.84,0,0,0,458.82,197.28Z"/><path class="cls-1" d="M478.28,179H481l6.16,16.46h.06L493.55,179h2.52l-7.83,20H486Z"/><path class="cls-1" d="M511.43,179h2.23l8.52,20h-2.77l-2-4.92h-10L505.29,199h-2.68ZM512.5,182h0l-4.16,9.85h8.17Z"/><path class="cls-1" d="M546.79,183.08a5.82,5.82,0,0,0-2.24-1.83,6.65,6.65,0,0,0-2.77-.61,7,7,0,0,0-3.07.68,7.78,7.78,0,0,0-2.42,1.83,8.34,8.34,0,0,0-1.58,2.66,8.87,8.87,0,0,0-.57,3.15,9.21,9.21,0,0,0,.57,3.27,8.25,8.25,0,0,0,1.57,2.63,7.56,7.56,0,0,0,2.4,1.77,7.35,7.35,0,0,0,3.1.65,7.23,7.23,0,0,0,3.28-.72,7.67,7.67,0,0,0,2.52-2.08l1.78,1.5a8.15,8.15,0,0,1-3.27,2.65,10.43,10.43,0,0,1-4.31.85,10.19,10.19,0,0,1-4-.79,9.88,9.88,0,0,1-5.38-5.51,11.78,11.78,0,0,1,0-8.35,9.78,9.78,0,0,1,5.33-5.57,10,10,0,0,1,4.1-.82,10.69,10.69,0,0,1,3.92.73,7.27,7.27,0,0,1,3.15,2.41Z"/><path class="cls-1" d="M560.59,179H563v20h-2.37Z"/><path class="cls-1" d="M585.17,199.48a10.8,10.8,0,0,1-4.2-.79,10.07,10.07,0,0,1-3.31-2.19,9.77,9.77,0,0,1-2.18-3.34,11.7,11.7,0,0,1,0-8.4,9.87,9.87,0,0,1,2.18-3.34,10.07,10.07,0,0,1,3.31-2.19,11.56,11.56,0,0,1,8.4,0,10.28,10.28,0,0,1,3.31,2.19,10,10,0,0,1,2.18,3.34,11.84,11.84,0,0,1,0,8.4,9.92,9.92,0,0,1-2.18,3.34,10.28,10.28,0,0,1-3.31,2.19A10.8,10.8,0,0,1,585.17,199.48Zm0-2.2a7.84,7.84,0,0,0,3.21-.65,7.63,7.63,0,0,0,2.5-1.79,8.09,8.09,0,0,0,1.63-2.64,9.34,9.34,0,0,0,0-6.48,8.09,8.09,0,0,0-1.63-2.64,7.46,7.46,0,0,0-2.5-1.78,8.14,8.14,0,0,0-6.42,0,7.5,7.5,0,0,0-2.51,1.78,8.06,8.06,0,0,0-1.62,2.64,9.34,9.34,0,0,0,0,6.48,8.06,8.06,0,0,0,1.62,2.64,7.67,7.67,0,0,0,2.51,1.79A7.84,7.84,0,0,0,585.17,197.28Zm1-23.82h3.11l-4,4.07h-2Z"/><path class="cls-1" d="M607.37,179h3L622,195.58h0V179h2.38v20h-3l-11.6-16.63h0V199h-2.38Z"/><path class="cls-1" d="M157.66,94.54h10.81v68.83H157.66Z"/><path class="cls-1" d="M228.06,111.56v8.94c0,11-5.31,17-16.13,17h-5.11v25.86H196V94.54h15.93C222.75,94.54,228.06,100.54,228.06,111.56Zm-21.24-7.18v23.3h5.11c3.44,0,5.31-1.57,5.31-6.49V110.87c0-4.92-1.87-6.49-5.31-6.49Z"/><path class="cls-1" d="M284.79,111.56v8.94c0,11-5.31,17-16.12,17h-5.12v25.86H252.74V94.54h15.93C279.48,94.54,284.79,100.54,284.79,111.56Zm-21.24-7.18v23.3h5.12c3.44,0,5.31-1.57,5.31-6.49V110.87c0-4.92-1.87-6.49-5.31-6.49Z"/><path class="cls-1" d="M319.4,140.56l-13.67-46H317l8.26,31.37,8.26-31.37h10.33l-13.67,46v22.81H319.4Z"/><path class="cls-1" d="M364.73,94.54h33.43v9.84H386.85v59H376v-59H364.73Z"/><path class="cls-1" d="M419.4,94.54h33.43v9.84H441.52v59H430.71v-59H419.4Z"/><path class="cls-1" d="M488,123.55h14.85v9.83H488v20.16h18.68v9.83h-29.5V94.54h29.5v9.84H488Z"/><path class="cls-1" d="M564.43,137.71v9.14c0,11-5.51,17.31-16.13,17.31s-16.12-6.29-16.12-17.31V111.06c0-11,5.5-17.3,16.12-17.3s16.13,6.29,16.13,17.3v6.69H554.2v-7.37c0-4.92-2.16-6.79-5.6-6.79s-5.61,1.87-5.61,6.79v37.16c0,4.92,2.17,6.69,5.61,6.69s5.6-1.77,5.6-6.69v-9.83Z"/><path class="cls-1" d="M601.5,163.37H590.68V94.54H601.5V124h12.29V94.54h11v68.83h-11V133.88H601.5Z"/><path class="cls-2" d="M88.58,141.61a1.79,1.79,0,0,1-1.88-1.7l-.26-3.79a1.79,1.79,0,0,1,1.62-1.94l3.86-.27a1.78,1.78,0,0,1,1.87,1.7l.27,3.79a1.8,1.8,0,0,1-1.62,1.94Z"/><path class="cls-2" d="M89.24,151.05a1.79,1.79,0,0,1-1.87-1.7l-.27-3.79a1.78,1.78,0,0,1,1.63-1.94l3.85-.27a1.79,1.79,0,0,1,1.88,1.7l.26,3.79a1.79,1.79,0,0,1-1.62,1.94Z"/><path class="cls-2" d="M98.84,151a1.94,1.94,0,0,1-2-1.85L96.5,145a2,2,0,0,1,1.77-2.12l4.22-.29a2,2,0,0,1,2.05,1.85l.29,4.15a2,2,0,0,1-1.77,2.12Z"/><path class="cls-3" d="M98.17,140.89a2,2,0,0,1-2-1.86l-.29-4.14a1.94,1.94,0,0,1,1.77-2.12l4.21-.29a1.94,1.94,0,0,1,2.05,1.85l.29,4.14a2,2,0,0,1-1.77,2.12Z"/><path class="cls-3" d="M74.76,133.16a3,3,0,0,1-3.16-2.88l-.43-6.41a3,3,0,0,1,2.75-3.27l6.53-.44A3,3,0,0,1,83.62,123l.42,6.42a3,3,0,0,1-2.75,3.27Z"/><path class="cls-2" d="M73.82,118.65a3,3,0,0,1-3.17-2.88l-.44-6.42A3,3,0,0,1,73,106.06l6.54-.45a3,3,0,0,1,3.17,2.88l.44,6.43a3,3,0,0,1-2.75,3.28Z"/><path class="cls-2" d="M121.84,163.35a3,3,0,0,1-3.19-2.91l-.42-6.47a3.06,3.06,0,0,1,2.78-3.3l6.59-.43a3.05,3.05,0,0,1,3.19,2.91l.42,6.47a3,3,0,0,1-2.78,3.3Z"/><path class="cls-2" d="M106,102a2.18,2.18,0,0,1-2.28-2.07l-.32-4.61a2.17,2.17,0,0,1,2-2.37l4.7-.32a2.17,2.17,0,0,1,2.28,2.06l.32,4.61a2.18,2.18,0,0,1-2,2.37Z"/><path class="cls-3" d="M109.78,160.65a2.19,2.19,0,0,1-2.28-2.1l-.28-4.65a2.19,2.19,0,0,1,2-2.37l4.74-.29a2.19,2.19,0,0,1,2.28,2.1l.28,4.65a2.19,2.19,0,0,1-2,2.37Z"/><path class="cls-3" d="M86.83,113.09a1.82,1.82,0,0,1-1.91-1.73l-.26-3.86a1.81,1.81,0,0,1,1.65-2l3.93-.27A1.83,1.83,0,0,1,92.15,107l.26,3.86a1.82,1.82,0,0,1-1.65,2Z"/><path class="cls-2" d="M87.45,122.65a1.81,1.81,0,0,1-1.91-1.73l-.26-3.86a1.82,1.82,0,0,1,1.65-2l3.93-.26a1.82,1.82,0,0,1,1.91,1.73l.26,3.86a1.82,1.82,0,0,1-1.66,2Z"/><path class="cls-2" d="M75.65,147.66a3,3,0,0,1-3.15-2.87l-.42-6.39a3,3,0,0,1,2.74-3.26l6.5-.43a3,3,0,0,1,3.15,2.87l.42,6.39a3,3,0,0,1-2.74,3.26Z"/><path class="cls-3" d="M56.33,140a4.36,4.36,0,0,1-4.53-4.19l-.56-9.26a4.37,4.37,0,0,1,4-4.7l9.43-.57a4.36,4.36,0,0,1,4.53,4.19l.56,9.26a4.37,4.37,0,0,1-4,4.7Z"/><path class="cls-2" d="M88,132.21a1.82,1.82,0,0,1-1.91-1.71l-.28-3.84a1.81,1.81,0,0,1,1.64-2l3.9-.29a1.82,1.82,0,0,1,1.91,1.72l.27,3.83a1.8,1.8,0,0,1-1.63,2Z"/><path class="cls-2" d="M63.13,119.38a1.82,1.82,0,0,1-1.89-1.73L61,113.81a1.8,1.8,0,0,1,1.65-2l3.9-.26a1.81,1.81,0,0,1,1.89,1.73l.25,3.84a1.8,1.8,0,0,1-1.65,2Z"/><path class="cls-3" d="M109.17,149.5a2.21,2.21,0,0,1-2.32-2.07l-.36-4.65a2.18,2.18,0,0,1,2-2.4l4.73-.37a2.2,2.2,0,0,1,2.33,2.06l.36,4.66a2.2,2.2,0,0,1-2,2.4Z"/><path class="cls-2" d="M86.18,103.48a1.83,1.83,0,0,1-1.91-1.74L84,97.87a1.83,1.83,0,0,1,1.66-2l3.94-.27a1.83,1.83,0,0,1,1.91,1.74l.26,3.87a1.81,1.81,0,0,1-1.65,2Z"/><path class="cls-3" d="M95.82,102.75a2,2,0,0,1-2-1.84l-.29-4.11a2,2,0,0,1,1.76-2.11l4.19-.29a1.94,1.94,0,0,1,2,1.84l.29,4.11a1.94,1.94,0,0,1-1.76,2.11Z"/><path class="cls-3" d="M108.62,66.7a2.2,2.2,0,0,1,2.3,2.1l.32,4.67a2.21,2.21,0,0,1-2,2.39l-4.76.32a2.21,2.21,0,0,1-2.31-2.1l-.32-4.67a2.21,2.21,0,0,1,2-2.39Z"/><path class="cls-2" d="M107.87,55.49a2.22,2.22,0,0,1,2.32,2.12l.3,4.71a2.22,2.22,0,0,1-2,2.41l-4.79.31a2.24,2.24,0,0,1-2.32-2.13l-.3-4.71a2.21,2.21,0,0,1,2-2.4Z"/><path class="cls-2" d="M76.1,41.19a2.27,2.27,0,0,1,2.41,2.15l.37,4.85a2.28,2.28,0,0,1-2,2.49l-4.94.38a2.29,2.29,0,0,1-2.41-2.16l-.37-4.84a2.3,2.3,0,0,1,2.06-2.5Z"/><path class="cls-2" d="M100.1,104.5a2,2,0,0,1,2,1.85l.27,4.11a1.94,1.94,0,0,1-1.76,2.1l-4.19.28a1.93,1.93,0,0,1-2-1.84l-.27-4.12a1.93,1.93,0,0,1,1.76-2.1Z"/><path class="cls-2" d="M96.66,50.18a1.93,1.93,0,0,1,2,1.85L99,56.16a1.94,1.94,0,0,1-1.77,2.11l-4.2.29a1.93,1.93,0,0,1-2-1.85l-.29-4.13a2,2,0,0,1,1.77-2.11Z"/><path class="cls-3" d="M124,91.63a3.06,3.06,0,0,1,3.2,2.91l.46,6.47a3.06,3.06,0,0,1-2.78,3.32l-6.59.46a3.06,3.06,0,0,1-3.21-2.9l-.45-6.48a3.06,3.06,0,0,1,2.77-3.32Z"/><path class="cls-3" d="M122.13,62.23a3.06,3.06,0,0,1,3.18,2.93l.4,6.47a3,3,0,0,1-2.79,3.29l-6.59.41a3.05,3.05,0,0,1-3.18-2.92l-.4-6.48a3,3,0,0,1,2.79-3.29Z"/><path class="cls-3" d="M142.89,67.75a4.91,4.91,0,0,1,5.11,4.7l.65,10.4a4.92,4.92,0,0,1-4.49,5.3l-10.6.65a4.91,4.91,0,0,1-5.11-4.7l-.64-10.4a4.91,4.91,0,0,1,4.49-5.3Z"/><path class="cls-3" d="M109.44,81.49a2.2,2.2,0,0,1,2.3,2.08l.33,4.65a2.21,2.21,0,0,1-2,2.38l-4.73.33a2.19,2.19,0,0,1-2.3-2.08l-.33-4.65a2.2,2.2,0,0,1,2-2.38Z"/><path class="cls-3" d="M110.93,103.72a2.23,2.23,0,0,1,2.36,2.11l.37,4.74a2.26,2.26,0,0,1-2,2.45l-4.82.36a2.24,2.24,0,0,1-2.37-2.11l-.35-4.74a2.23,2.23,0,0,1,2-2.44Z"/><path class="cls-2" d="M123,76.9a3.06,3.06,0,0,1,3.21,2.9l.46,6.48a3.08,3.08,0,0,1-2.77,3.33l-6.6.46a3.06,3.06,0,0,1-3.22-2.89l-.46-6.49a3.06,3.06,0,0,1,2.78-3.32Z"/><path class="cls-3" d="M86.47,46.38a1.8,1.8,0,0,1,1.88,1.71l.25,3.79A1.78,1.78,0,0,1,87,53.82l-3.86.26a1.79,1.79,0,0,1-1.87-1.7L81,48.58a1.8,1.8,0,0,1,1.63-1.94Z"/><path class="cls-2" d="M87.08,55.9A1.81,1.81,0,0,1,89,57.62l.26,3.8a1.8,1.8,0,0,1-1.63,1.95l-3.88.26a1.8,1.8,0,0,1-1.88-1.71l-.26-3.81a1.8,1.8,0,0,1,1.64-1.94Z"/><path class="cls-3" d="M97.25,60.26a1.94,1.94,0,0,1,2,1.83l.28,4.11a1.93,1.93,0,0,1-1.75,2.1l-4.17.29a1.94,1.94,0,0,1-2-1.84l-.28-4.1a1.94,1.94,0,0,1,1.75-2.1Z"/></svg>