<?xml version="1.0" standalone="no"?>
<!DOCTYPE svg PUBLIC "-//W3C//DTD SVG 20010904//EN"
 "http://www.w3.org/TR/2001/REC-SVG-20010904/DTD/svg10.dtd">
<svg version="1.0" xmlns="http://www.w3.org/2000/svg"
 width="804.000000pt" height="1080.000000pt" viewBox="0 0 804.000000 1080.000000"
 preserveAspectRatio="xMidYMid meet">
<metadata>
Created by potrace 1.16, written by Peter Selinger 2001-2019
</metadata>
<g transform="translate(0.000000,1080.000000) scale(0.100000,-0.100000)"
fill="#000000" stroke="none">
<path d="M4206 9268 c-9 -12 -16 -27 -16 -33 0 -5 4 -3 10 5 5 8 13 11 17 6 4
-4 -1 -14 -11 -22 -16 -11 -17 -14 -4 -14 24 0 31 -30 12 -51 -16 -17 -18 -17
-29 -3 -11 16 -12 15 -18 0 -4 -10 -3 -15 3 -11 6 3 10 -1 10 -10 0 -10 -5
-13 -12 -9 -6 4 -8 3 -4 -4 3 -6 15 -9 25 -7 10 2 24 -1 32 -7 11 -8 10 -9 -4
-4 -12 4 -20 0 -23 -12 -17 -54 -38 -91 -55 -95 -16 -4 -17 -10 -9 -38 l10
-34 -23 28 c-12 15 -38 32 -57 37 -32 10 -37 8 -59 -17 -13 -16 -27 -28 -30
-28 -3 -1 -16 -6 -27 -13 -15 -8 -32 -8 -53 -2 -19 5 -29 5 -26 -1 4 -5 1 -9
-4 -9 -10 0 -15 14 -12 33 0 4 -7 7 -17 7 -11 0 -27 9 -37 20 -20 22 -80 44
-95 35 -15 -9 -12 -26 8 -42 9 -8 11 -12 5 -8 -8 4 -13 -1 -13 -12 0 -15 -2
-16 -10 -3 -6 9 -10 10 -10 3 0 -8 -9 -7 -30 3 -16 9 -30 20 -30 26 0 7 -4 7
-12 0 -14 -11 -43 10 -31 22 4 3 -1 6 -10 6 -10 0 -17 -4 -17 -9 0 -8 -52 -6
-78 4 -7 2 -15 -2 -19 -10 -4 -12 -9 -13 -19 -4 -16 13 -34 4 -34 -17 0 -8 -4
-12 -10 -9 -5 3 -10 -1 -10 -9 0 -9 7 -16 15 -16 8 0 15 5 15 10 0 16 27 12
34 -5 3 -9 0 -15 -9 -15 -8 0 -15 -4 -15 -10 0 -5 -7 -10 -15 -10 -7 0 -18 -7
-23 -16 -8 -14 -13 -14 -32 -4 -17 9 -28 9 -48 0 -17 -7 -22 -14 -14 -19 7 -4
-16 -7 -51 -7 -57 1 -65 -2 -93 -30 -17 -18 -41 -35 -52 -38 -18 -6 -20 -10
-10 -31 9 -20 14 -22 39 -15 37 11 40 -12 7 -41 -28 -22 -42 -24 -34 -4 5 13
2 14 -15 4 -15 -8 -19 -8 -15 0 5 7 -1 11 -15 11 -19 0 -20 -2 -8 -16 12 -15
11 -16 -8 -10 -27 9 -63 -12 -63 -36 0 -21 -20 -24 -38 -6 -7 7 -12 8 -12 2 0
-6 11 -16 24 -24 21 -11 29 -10 62 11 31 19 36 20 31 6 -4 -11 -1 -17 8 -17
23 0 18 -24 -10 -54 -14 -15 -25 -34 -25 -42 0 -8 -6 -14 -12 -13 -46 6 -52
-24 -12 -56 l26 -21 -30 -34 -31 -34 -10 25 c-13 36 -37 54 -45 34 -3 -10 -15
-15 -28 -13 -13 2 -23 -2 -23 -9 0 -6 -3 -14 -7 -18 -4 -4 -4 -13 -1 -21 6
-17 -8 -19 -24 -3 -20 20 -53 0 -53 -32 0 -25 -4 -29 -28 -29 -33 0 -57 -22
-73 -68 -6 -18 -16 -33 -22 -33 -7 -1 -16 -2 -22 -4 -5 -1 -16 -3 -22 -3 -23
-3 -14 -22 14 -33 24 -9 63 -41 63 -51 0 -2 -16 -12 -35 -22 -36 -20 -46 -36
-21 -36 20 0 25 -45 11 -93 -9 -30 -18 -42 -31 -42 -14 0 -20 -8 -22 -33 -3
-27 -8 -34 -33 -39 -16 -3 -29 -9 -29 -13 0 -5 -9 -6 -20 -3 -14 4 -20 0 -20
-12 0 -14 -6 -16 -30 -12 -16 4 -32 2 -35 -3 -3 -6 -14 -10 -23 -10 -9 0 -28
-7 -42 -15 -14 -8 -35 -19 -48 -25 -16 -7 -22 -17 -20 -32 4 -33 28 -33 63 -1
37 35 130 66 144 49 16 -19 2 -55 -20 -51 -11 2 -19 -2 -19 -10 0 -18 20 -30
21 -13 0 7 5 -2 10 -20 8 -28 12 -31 29 -22 11 6 20 17 20 24 0 7 11 18 24 25
20 11 26 10 51 -13 19 -17 35 -25 49 -21 12 3 15 2 8 -1 -9 -4 -10 -9 -2 -19
8 -10 8 -19 -2 -34 -14 -22 -28 -28 -28 -11 0 6 5 10 11 10 16 0 5 25 -12 26
-24 1 -31 -7 -19 -21 24 -29 1 -56 -58 -70 -13 -4 -51 -45 -52 -57 0 -5 -9 -8
-19 -8 -11 0 -22 -8 -24 -17 -14 -52 -16 -72 -7 -78 5 -3 -2 -17 -17 -31 -19
-18 -29 -21 -39 -13 -7 6 -17 8 -23 5 -14 -9 -1 -45 21 -57 16 -9 26 -7 50 11
16 12 32 20 34 17 13 -13 -40 -102 -56 -92 -10 6 -42 -54 -37 -69 3 -8 -6 -19
-19 -26 -15 -9 -28 -28 -35 -53 -6 -22 -15 -49 -21 -61 -6 -11 -14 -28 -18
-36 -8 -17 7 -68 26 -89 8 -9 19 -11 31 -6 10 5 21 9 26 9 7 1 8 13 0 34 -7
18 16 42 34 35 12 -5 14 -1 9 15 -4 11 -2 23 4 27 5 3 10 15 10 25 0 13 5 17
14 14 8 -3 24 4 35 15 11 11 23 16 26 11 4 -6 12 -4 21 5 20 19 34 19 34 0 0
-8 6 -15 14 -15 24 0 25 -13 5 -72 l-20 -57 26 -42 c20 -30 29 -38 35 -29 13
21 36 20 37 -1 1 -10 -3 -21 -8 -24 -5 -4 -7 -11 -4 -16 3 -5 -1 -6 -9 -3 -11
4 -14 -1 -12 -20 2 -16 -2 -26 -9 -26 -14 0 -14 -24 -2 -36 4 -4 7 -12 7 -17
0 -6 -3 -7 -6 -4 -4 3 -15 2 -26 -4 -11 -6 -17 -13 -14 -16 3 -3 1 -14 -4 -24
-8 -14 -4 -20 22 -33 17 -9 37 -16 45 -16 19 0 16 -47 -4 -54 -9 -4 -20 -1
-24 6 -5 8 -11 3 -19 -16 -6 -16 -13 -33 -16 -37 -7 -11 64 -79 82 -79 8 0 14
-4 14 -8 0 -6 18 -7 63 -3 5 1 6 5 3 10 -3 5 2 15 11 22 14 12 16 12 8 0 -5
-9 -4 -12 3 -7 6 4 9 12 6 19 -5 15 49 38 65 27 7 -3 9 -14 6 -22 -3 -8 2 -24
12 -33 13 -13 14 -20 5 -23 -6 -2 -13 -13 -13 -25 -1 -17 -2 -18 -6 -4 -2 9
-9 15 -14 11 -5 -3 -7 -10 -3 -15 3 -5 0 -17 -8 -26 -11 -14 -10 -15 10 -9 17
6 21 4 16 -8 -3 -9 -10 -16 -15 -16 -4 0 -6 -7 -3 -15 4 -8 2 -15 -4 -15 -5 0
-12 -16 -14 -35 -2 -19 0 -35 5 -35 4 0 5 -5 1 -11 -10 -17 36 0 60 22 11 11
26 19 33 19 8 0 12 4 9 8 -2 4 4 9 15 9 11 1 17 -2 14 -8 -4 -5 -1 -9 4 -9 6
0 11 9 11 20 0 11 5 20 10 20 6 0 10 7 10 16 0 8 4 13 8 10 5 -3 15 6 22 19 8
16 23 26 39 27 14 0 33 1 41 2 8 1 16 9 18 19 2 9 7 17 12 17 5 0 15 3 24 6
30 12 17 -23 -14 -36 -24 -10 -30 -19 -30 -42 0 -24 3 -28 19 -23 18 5 19 4 8
-27 -7 -18 -16 -36 -21 -39 -5 -4 -6 -11 -2 -17 4 -6 -2 -8 -14 -5 -25 7 -27
-17 -4 -52 15 -23 15 -25 0 -31 -9 -3 -25 -4 -36 -1 -21 5 -24 -1 -20 -42 2
-29 30 -70 48 -71 6 0 12 -6 12 -12 0 -9 2 -10 8 -2 4 7 15 8 27 3 11 -4 16
-8 11 -8 -5 -1 -4 -7 2 -13 18 -22 18 -64 -1 -82 -9 -10 -21 -14 -27 -11 -5 3
-10 -1 -10 -9 0 -8 5 -18 10 -21 6 -3 10 -1 10 4 0 18 14 13 28 -10 18 -28 24
-82 10 -90 -9 -6 -8 -12 3 -25 13 -15 12 -16 -9 -10 -22 7 -23 6 -10 -16 7
-12 18 -26 23 -31 6 -4 1 -10 -12 -13 -13 -4 -20 -11 -17 -16 3 -5 -8 -21 -25
-35 -37 -31 -39 -45 -8 -59 17 -8 31 -6 60 9 22 10 45 16 53 13 17 -7 82 54
77 71 -7 21 16 24 37 3 30 -30 80 -24 80 11 0 19 -40 36 -58 25 -9 -6 -8 16 3
52 6 17 12 21 29 16 22 -7 56 -41 56 -56 0 -4 9 -8 20 -8 10 0 24 -9 30 -20 6
-11 19 -20 28 -20 10 0 25 -8 34 -17 26 -28 46 -43 58 -43 6 0 9 -4 5 -9 -7
-12 8 -21 43 -26 26 -3 28 0 27 23 -1 15 -11 45 -22 67 -42 83 -93 275 -93
351 0 19 -6 36 -12 38 -62 16 -73 23 -70 41 1 12 -7 26 -20 34 -22 13 -23 13
-5 -6 19 -21 22 -33 9 -33 -12 0 -32 47 -32 75 0 33 40 78 62 70 18 -7 42 -71
32 -86 -2 -4 0 -10 6 -14 6 -4 9 37 8 117 -1 118 6 170 23 193 42 53 58 65 96
74 41 8 41 8 47 -23 18 -94 107 -210 199 -259 36 -19 57 -22 157 -22 103 0
119 3 152 23 87 54 253 290 218 312 -8 5 -18 6 -23 3 -5 -3 -4 -9 3 -13 8 -5
7 -9 -4 -13 -8 -3 -20 -25 -26 -47 -6 -23 -13 -40 -15 -38 -3 2 0 20 5 39 6
19 10 54 9 79 -2 35 1 44 12 40 8 -2 55 -6 106 -8 l91 -3 -14 -34 c-16 -39
-11 -56 28 -105 19 -24 26 -42 22 -58 -4 -12 -2 -22 3 -22 5 0 8 -25 6 -55 -2
-36 1 -55 8 -55 8 0 8 -4 0 -14 -9 -10 -9 -16 -1 -21 8 -5 6 -13 -5 -25 -9
-10 -14 -24 -10 -29 3 -6 1 -11 -5 -11 -7 0 -31 -16 -55 -36 -47 -38 -55 -40
-132 -31 -28 4 -72 3 -97 -2 -35 -6 -48 -5 -60 7 -9 9 -18 13 -21 10 -4 -3 13
-26 37 -50 33 -34 57 -49 103 -62 143 -41 137 -38 131 -62 -6 -23 -6 -23 89
-18 80 4 95 3 95 -10 0 -8 -8 -15 -17 -14 -26 0 -177 -23 -183 -28 -2 -3 2 -9
9 -13 27 -17 0 -28 -56 -26 -159 8 -221 17 -216 32 5 13 -3 14 -53 8 -32 -4
-87 -9 -121 -10 -55 -1 -61 0 -58 17 2 10 13 31 24 47 12 16 21 33 21 39 0 5
6 15 14 21 7 6 16 26 19 44 6 36 26 84 57 136 12 18 18 36 15 39 -5 6 -19 -7
-143 -130 -42 -43 -82 -78 -89 -78 -7 0 -10 -6 -7 -14 5 -12 -27 -30 -48 -27
-5 1 -8 -3 -8 -8 0 -5 3 -11 8 -14 4 -2 1 -2 -7 0 -7 2 -20 -2 -27 -8 -11 -9
-11 -15 1 -32 20 -29 19 -37 -5 -37 -19 0 -19 -1 -3 -20 11 -12 20 -16 24 -9
9 15 15 12 46 -19 l28 -27 3 24 c2 13 12 26 23 28 10 3 19 9 19 14 0 5 5 9 11
9 6 0 8 -9 4 -20 -8 -25 21 -74 39 -67 6 3 34 -15 61 -40 27 -24 60 -46 72
-49 13 -4 23 -10 23 -16 0 -5 4 -7 10 -3 14 9 1 33 -18 31 -11 -1 -21 12 -28
34 -14 42 -10 51 11 24 15 -18 15 -18 13 10 -3 26 1 31 31 39 19 4 45 6 59 2
14 -3 63 -8 108 -11 46 -2 95 -9 109 -14 15 -6 43 -10 63 -11 20 0 46 -4 57
-8 11 -5 32 -5 46 -1 30 9 42 3 52 -24 7 -18 9 -18 32 4 23 22 45 20 45 -3 0
-7 -5 -29 -11 -49 -10 -38 -39 -52 -54 -28 -4 6 -12 4 -22 -6 -11 -10 -28 -14
-49 -12 -22 3 -35 -1 -39 -10 -4 -11 -29 -13 -129 -9 -68 3 -134 10 -145 17
-12 6 -26 8 -32 4 -6 -4 -15 0 -20 7 -4 7 -11 10 -15 7 -10 -11 58 -48 88 -48
15 0 34 -7 43 -16 9 -9 19 -14 22 -11 3 4 17 0 32 -7 18 -10 58 -13 131 -11
119 3 214 26 230 56 6 10 17 19 26 19 8 0 17 7 20 15 4 8 10 12 15 9 5 -3 9 0
9 5 0 6 6 11 14 11 12 0 12 -4 0 -30 -20 -39 -55 -65 -66 -47 -5 8 -18 1 -44
-26 -29 -30 -43 -37 -61 -32 -14 3 -29 -1 -41 -12 -28 -27 -56 -41 -95 -48
-22 -4 -37 -14 -39 -24 -2 -12 -14 -16 -43 -16 -22 0 -43 5 -47 10 -5 6 -8 4
-8 -5 0 -13 -1 -13 -10 0 -6 10 -10 11 -10 3 0 -7 -7 -13 -15 -13 -8 0 -15 5
-15 11 0 6 -7 8 -16 5 -9 -3 -12 -2 -9 5 4 6 -3 7 -19 3 -14 -3 -39 -1 -56 4
-17 6 -30 7 -30 2 0 -5 -8 -7 -17 -4 -15 4 -14 2 2 -10 40 -30 60 -47 48 -42
-13 7 -28 -10 -15 -18 31 -19 171 -48 242 -51 47 -2 96 -5 110 -8 28 -4 74 13
132 49 21 14 43 22 48 19 6 -4 13 2 17 12 3 10 12 22 20 26 7 4 13 15 13 22 0
8 4 15 9 15 4 0 6 11 3 25 -2 15 0 25 7 25 6 0 11 10 11 23 0 12 6 34 14 48
12 23 25 62 32 96 1 7 23 40 48 73 25 33 46 64 46 69 0 14 38 43 44 33 3 -5
-1 -31 -9 -58 -8 -26 -13 -50 -11 -51 5 -5 46 93 46 108 0 7 8 5 21 -7 16 -14
19 -26 15 -49 -4 -16 -7 -39 -7 -49 0 -17 -13 -48 -40 -96 -5 -8 -14 -26 -19
-39 -12 -26 -150 -165 -150 -150 0 6 -5 7 -11 4 -6 -4 -8 -13 -5 -20 2 -7 -7
-26 -21 -42 -15 -15 -26 -30 -25 -33 1 -3 -4 -5 -10 -5 -7 0 -13 -11 -13 -24
0 -13 -13 -38 -28 -54 -55 -59 -48 -68 15 -21 35 25 79 54 99 65 21 10 47 36
62 61 27 45 167 188 186 188 5 0 33 39 62 88 28 48 59 98 68 112 10 14 25 48
35 75 10 28 29 67 42 87 13 21 24 41 24 44 0 11 70 184 83 204 11 19 37 26 50
14 3 -3 -2 -29 -13 -58 -19 -53 -45 -156 -42 -167 0 -4 3 -33 6 -65 5 -65 -6
-100 -54 -170 l-29 -44 24 6 c14 3 25 2 25 -3 0 -24 -106 -212 -136 -241 -19
-18 -34 -38 -34 -45 0 -7 -9 -18 -20 -24 -10 -7 -24 -32 -30 -55 -17 -62 -55
-112 -106 -139 -26 -14 -42 -29 -39 -37 3 -9 -3 -10 -20 -6 -20 5 -27 1 -34
-17 -5 -13 -20 -36 -34 -50 -13 -14 -28 -35 -32 -48 -3 -12 -20 -35 -35 -52
-16 -16 -27 -29 -23 -29 3 0 -6 -11 -21 -25 -14 -13 -26 -33 -26 -45 0 -11 -6
-20 -14 -20 -8 0 -17 -7 -20 -16 -4 -9 -9 -14 -13 -11 -3 4 -21 -11 -41 -33
-19 -22 -43 -40 -53 -40 -26 0 -35 -21 -14 -36 10 -8 15 -20 11 -29 -3 -9 -1
-25 4 -36 8 -13 7 -19 0 -19 -6 0 -9 -4 -6 -9 3 -5 -1 -12 -10 -15 -15 -6 -15
-8 1 -26 10 -11 13 -20 8 -20 -13 0 -26 -37 -23 -65 3 -28 27 -53 61 -60 37
-8 67 -51 61 -90 -2 -16 -4 -37 -4 -45 1 -26 30 -183 42 -223 6 -20 8 -41 5
-47 -3 -5 2 -13 11 -18 11 -6 15 -16 11 -26 -4 -10 -3 -15 3 -11 6 3 10 0 10
-8 0 -8 7 -20 15 -27 13 -11 13 -15 3 -21 -7 -5 -8 -9 -2 -9 16 0 32 -42 29
-73 -3 -24 -1 -27 17 -21 17 5 20 3 15 -10 -4 -9 -2 -16 4 -16 6 0 9 -8 8 -17
-1 -10 0 -25 3 -33 3 -8 11 -34 18 -57 7 -24 17 -40 23 -36 6 4 8 0 4 -10 -4
-11 -1 -17 8 -17 18 0 18 -5 5 -30 -9 -17 -8 -19 7 -13 16 6 16 4 -2 -18 -15
-18 -16 -20 -2 -10 15 12 17 11 17 -13 0 -15 6 -29 14 -32 8 -3 12 -13 8 -26
-3 -13 1 -24 12 -30 9 -5 16 -16 16 -24 0 -8 5 -12 10 -9 14 9 12 -9 -2 -24
-11 -10 -9 -11 6 -5 16 6 18 4 13 -18 -5 -18 -2 -28 8 -32 8 -3 15 -10 15 -16
0 -6 -4 -8 -10 -5 -16 10 -12 -7 8 -28 12 -15 13 -18 2 -12 -12 7 -13 6 -3 -7
7 -8 10 -17 7 -21 -3 -3 1 -18 10 -34 8 -15 15 -22 16 -14 0 8 3 11 6 8 4 -4
2 -13 -5 -20 -12 -15 -5 -50 9 -42 9 6 36 -55 32 -72 -3 -12 10 -17 31 -14 4
0 7 -4 7 -9 0 -6 -7 -10 -17 -10 -15 0 -15 -2 1 -19 10 -11 16 -24 13 -28 -3
-5 10 -26 29 -48 32 -37 38 -49 35 -67 0 -5 3 -8 9 -8 5 0 7 -7 4 -15 -4 -8 1
-17 10 -21 9 -3 17 -16 17 -28 1 -16 2 -17 6 -3 2 9 9 17 14 17 11 0 11 -7 0
-48 -9 -31 1 -46 13 -19 5 9 7 9 12 0 3 -7 13 -9 22 -6 15 4 15 3 2 -7 -11 -9
-12 -13 -2 -17 26 -10 39 -32 37 -66 -1 -31 2 -34 17 -26 10 5 18 14 18 19 0
6 5 10 11 10 8 0 7 -5 -1 -15 -15 -18 -13 -21 20 -34 24 -10 25 -10 3 -10 -13
-1 -23 -5 -23 -11 0 -5 7 -7 15 -4 8 4 17 -1 21 -9 8 -22 34 -30 34 -11 0 8
-4 12 -10 9 -5 -3 -10 -1 -10 5 0 7 6 10 13 7 20 -7 16 -77 -5 -77 -6 0 -5 6
2 15 10 12 10 15 -4 15 -17 0 -21 -17 -7 -39 6 -10 13 -11 27 -3 11 6 18 14
17 19 -1 4 5 7 13 7 17 -2 18 8 2 25 -10 11 -10 13 0 7 15 -9 16 16 1 31 -7 7
-5 12 10 16 13 3 18 1 15 -8 -3 -7 -1 -16 5 -19 6 -4 13 5 17 19 3 13 10 22
15 20 4 -3 5 -13 2 -22 -4 -11 -3 -14 6 -9 8 5 10 0 7 -18 -4 -23 -3 -24 15
-13 10 6 19 19 20 27 0 8 4 5 10 -8 5 -13 13 -21 18 -18 9 6 8 -20 -1 -44 -14
-34 -14 -45 1 -62 9 -10 20 -18 26 -18 5 0 3 5 -5 10 -8 5 -11 10 -6 10 5 0 3
7 -4 15 -10 12 -10 19 -2 27 9 9 12 7 12 -8 0 -15 2 -16 9 -5 7 11 12 6 19
-20 6 -23 5 -39 -2 -48 -9 -11 -8 -13 4 -9 19 6 42 -16 35 -34 -3 -7 5 -17 17
-23 16 -7 24 -20 26 -44 2 -21 0 -31 -7 -26 -6 3 -11 1 -11 -4 0 -6 4 -11 10
-11 13 0 31 36 22 46 -4 5 1 2 11 -5 9 -7 17 -20 17 -27 0 -8 -8 -14 -17 -14
-15 0 -16 -2 -3 -10 9 -6 17 -5 21 2 5 8 12 6 23 -4 8 -9 12 -18 9 -22 -12
-12 40 -56 66 -56 19 0 22 -3 12 -9 -8 -5 -21 -7 -30 -4 -12 3 -12 1 2 -10 11
-9 26 -13 35 -9 14 5 15 4 2 -10 -11 -11 -17 -12 -22 -4 -6 8 -8 8 -8 -1 0
-18 21 -27 30 -13 5 7 8 2 8 -15 0 -18 -5 -25 -14 -21 -8 3 -11 0 -8 -8 3 -8
15 -11 32 -8 24 5 25 3 14 -11 -8 -9 -20 -13 -28 -10 -20 8 -17 -3 8 -27 12
-11 18 -23 15 -27 -4 -3 -7 -1 -7 5 0 7 -4 12 -10 12 -5 0 -10 -7 -10 -15 0
-8 7 -15 15 -15 8 0 15 -3 15 -6 0 -13 -22 -44 -31 -44 -6 0 -3 7 5 16 21 20
21 21 -14 21 -17 0 -27 -3 -21 -6 9 -6 6 -65 -4 -82 -4 -5 -1 -9 5 -9 7 0 14
9 17 20 3 11 9 20 14 20 12 0 11 -17 0 -25 -6 -3 -8 -14 -6 -25 2 -11 0 -20
-6 -20 -5 0 -9 4 -9 8 0 5 -6 9 -14 9 -8 0 -12 -6 -9 -14 4 -9 -3 -16 -16 -20
-11 -3 -18 -9 -15 -14 3 -5 0 -9 -5 -9 -6 0 -11 -8 -12 -17 0 -17 -1 -17 -8 0
-6 17 -8 17 -24 -1 -17 -19 -17 -20 13 -24 25 -4 33 0 43 20 6 14 19 27 27 30
10 3 8 -1 -4 -10 -11 -8 -16 -20 -12 -27 4 -6 0 -14 -8 -17 -9 -3 -14 -10 -11
-14 3 -4 -3 -14 -13 -21 -15 -13 -16 -12 -3 4 7 9 10 17 5 18 -5 0 -18 2 -28
4 -11 2 -31 -9 -48 -26 -35 -35 -38 -35 -38 -8 0 11 4 17 10 14 6 -4 7 1 3 11
-5 13 -2 15 15 10 11 -4 23 -2 27 4 3 5 1 10 -5 10 -7 0 -10 7 -6 15 8 23 -4
18 -31 -12 -16 -19 -26 -24 -31 -16 -5 8 -12 8 -26 -3 -19 -13 -11 -20 17 -15
4 1 6 -11 3 -26 -2 -16 -5 -32 -5 -38 -1 -5 -6 -3 -11 5 -6 9 -10 10 -10 3 0
-6 6 -18 13 -25 17 -16 18 -28 5 -52 -7 -13 -13 -15 -21 -7 -8 8 -17 5 -34
-11 -13 -12 -23 -26 -23 -32 0 -6 7 -2 15 8 14 18 15 18 25 -8 14 -37 14 -36
-20 -20 -16 9 -30 20 -30 25 0 6 -5 7 -10 4 -8 -5 -7 -11 0 -20 7 -8 9 -19 5
-26 -4 -6 -1 -15 6 -20 10 -6 11 -9 2 -9 -18 0 -16 -29 2 -36 8 -4 15 -11 15
-16 0 -6 -7 -8 -15 -4 -13 4 -14 2 -5 -14 6 -11 8 -25 5 -30 -3 -6 3 -10 15
-10 12 0 18 -5 15 -10 -3 -6 -2 -10 4 -10 7 0 7 -8 1 -24 -7 -21 -6 -26 10
-31 18 -6 18 -8 5 -21 -8 -8 -11 -22 -8 -32 5 -14 3 -14 -17 3 l-23 20 12 -23
c6 -12 13 -22 14 -22 1 0 16 4 33 9 28 8 32 7 32 -13 0 -30 6 -50 16 -58 6 -4
4 -14 -5 -24 -13 -15 -12 -16 10 -9 21 6 22 5 10 -8 -8 -8 -17 -13 -21 -11 -4
3 -16 -3 -28 -13 -25 -22 -27 -48 -2 -38 13 5 14 3 6 -5 -9 -9 -17 -9 -32 -1
-24 13 -43 15 -23 2 11 -7 11 -12 -2 -31 -9 -13 -16 -17 -19 -9 -2 7 -12 9
-26 5 -18 -6 -20 -12 -15 -39 3 -18 11 -39 17 -47 5 -8 7 -12 3 -9 -4 4 -20
-5 -35 -20 -94 -89 -114 -104 -154 -106 -59 -4 -67 -20 -22 -41 58 -28 101
-23 314 35 41 11 77 21 79 21 2 0 -6 -9 -19 -20 -13 -11 -21 -21 -19 -21 6 -2
35 -6 95 -15 40 -5 57 -3 75 10 l23 16 -22 0 c-13 0 -22 6 -22 15 0 8 9 15 21
15 11 0 17 -4 14 -10 -14 -22 14 -8 29 15 15 23 15 25 -1 25 -15 0 -15 1 2 14
12 8 16 20 12 35 -3 11 -1 21 3 21 4 0 6 8 3 18 -3 11 7 31 25 50 17 18 28 32
25 32 -2 0 5 15 16 34 31 50 141 273 142 288 0 7 4 4 9 -7 8 -18 9 -17 9 6 1
15 37 103 80 197 44 94 86 190 95 215 45 133 84 340 151 802 18 129 33 291 45
507 25 447 31 561 32 603 0 25 7 50 14 56 8 6 14 21 14 34 0 14 9 26 25 33 30
14 32 28 6 50 -12 10 -23 36 -27 65 -6 42 -4 47 13 47 27 0 51 21 58 51 5 19
0 31 -19 50 -30 28 -33 41 -8 38 9 -2 28 3 42 11 14 8 27 14 30 13 3 -1 5 21
6 48 1 47 0 49 -17 33 -14 -12 -24 -14 -46 -7 -15 5 -27 13 -25 16 1 4 2 14 2
22 0 11 12 15 48 15 54 0 92 9 92 21 0 4 -14 16 -30 26 -17 10 -34 29 -37 43
-10 40 -55 76 -84 68 -89 -25 -377 -91 -407 -93 -27 -2 -68 -24 -151 -79 -66
-44 -125 -76 -139 -76 -24 0 -85 -42 -164 -112 -34 -29 -42 -49 -83 -180 -116
-378 -285 -878 -296 -878 -21 0 -219 293 -219 324 0 6 -5 17 -10 22 -6 6 -13
21 -15 35 -3 13 -9 25 -15 27 -6 2 -8 8 -4 13 3 5 2 9 -3 9 -4 0 -14 15 -21
33 -7 17 -18 39 -23 47 -5 8 -17 31 -26 50 -9 19 -26 57 -39 83 -13 26 -18 45
-11 42 6 -4 4 0 -5 8 -10 8 -21 29 -25 48 -3 19 -10 37 -15 40 -5 3 -11 16
-13 30 -3 13 -10 26 -15 27 -7 3 -6 9 2 20 11 13 11 14 -2 10 -9 -3 -21 9 -32
31 -11 22 -14 37 -8 39 6 2 7 9 3 15 -8 12 -9 18 -12 40 -1 9 -4 8 -10 -2 -6
-10 -11 -5 -17 20 -4 19 -8 36 -9 39 0 3 -4 11 -9 19 -12 19 -14 111 -2 111 5
0 6 3 2 7 -4 5 -15 -1 -23 -12 -12 -15 -14 -16 -10 -3 3 9 -1 22 -9 29 -16 13
-14 44 5 92 39 100 119 258 137 273 8 6 14 17 14 23 0 7 6 11 13 8 18 -6 10
-42 -28 -124 -19 -41 -35 -81 -35 -88 0 -7 -7 -18 -15 -25 -9 -7 -13 -15 -10
-18 3 -3 0 -11 -6 -19 -6 -7 -9 -22 -6 -33 3 -11 1 -18 -3 -15 -10 6 -40 -34
-40 -53 0 -8 8 -12 18 -10 10 2 17 12 16 26 0 12 5 22 13 22 7 0 13 3 13 8 0
4 17 25 37 47 21 22 37 43 35 47 -1 3 15 21 36 39 37 32 51 52 165 223 31 48
68 97 80 109 54 52 99 121 165 254 68 137 133 235 195 295 22 21 26 28 13 28
-9 0 -16 4 -16 9 0 13 26 32 34 24 4 -4 5 -1 2 7 -8 20 62 52 129 60 l50 7
-62 1 c-93 3 -327 32 -337 42 -6 6 -3 24 7 47 20 46 40 116 61 207 9 39 18 72
21 74 9 9 35 -21 35 -39 0 -14 7 -19 29 -19 31 0 81 40 81 64 0 8 4 17 9 20
12 8 11 58 -1 74 -7 8 -7 12 0 12 6 0 16 -9 22 -20 6 -11 19 -20 30 -20 12 0
17 -5 14 -13 -4 -10 8 -14 45 -16 46 -1 53 2 82 34 36 40 46 42 65 18 10 -15
15 -16 25 -5 7 6 23 12 35 12 36 0 57 75 27 97 -9 7 -17 21 -18 30 -4 32 -17
55 -39 63 -18 7 -16 9 14 10 26 1 41 9 60 30 28 35 60 39 67 10 5 -21 19 -25
47 -14 18 7 22 39 6 49 -5 3 -10 12 -9 18 0 9 2 9 6 0 2 -7 9 -13 14 -13 6 0
2 14 -8 30 -9 17 -21 30 -26 30 -4 0 -13 13 -18 29 -6 15 -21 33 -35 40 -14 6
-22 16 -19 21 3 6 1 10 -5 10 -6 0 -8 11 -6 25 3 18 -4 34 -30 61 -32 35 -59
98 -48 115 2 4 19 5 37 2 28 -4 36 -1 51 22 10 15 13 24 7 21 -7 -5 -11 3 -11
22 0 38 41 63 72 43 16 -10 19 -10 13 1 -3 7 0 5 8 -4 8 -10 17 -16 20 -13 4
3 5 2 2 -2 -8 -10 16 -33 35 -33 24 0 44 59 35 100 -7 32 -34 92 -45 100 -4 3
-18 23 -32 45 -14 22 -42 57 -63 77 -20 20 -35 43 -33 50 3 7 -2 19 -9 26 -11
11 -11 17 -1 29 9 12 9 16 -3 24 -9 6 -10 9 -2 9 7 0 17 -9 23 -20 6 -11 19
-20 28 -20 10 0 25 -9 35 -20 9 -11 23 -20 31 -20 17 0 30 16 19 22 -5 1 -20
19 -34 38 -26 36 -48 140 -29 140 6 0 10 -6 10 -13 0 -14 41 -57 53 -57 13 0
7 48 -8 60 -8 7 -12 16 -10 21 3 4 -4 13 -15 19 -11 6 -20 16 -20 23 0 7 -6
19 -12 26 -16 15 -17 34 -4 43 6 4 3 15 -8 27 -18 19 -18 20 5 17 83 -10 111
-20 121 -42 6 -13 16 -25 24 -28 16 -6 58 30 49 44 -3 5 1 13 9 16 9 3 16 12
16 20 0 14 -34 37 -43 28 -11 -12 -93 107 -89 129 1 4 -5 7 -14 7 -8 0 -13 4
-10 9 9 14 42 2 63 -22 10 -11 13 -17 6 -14 -6 4 -14 3 -18 -3 -3 -5 1 -10 9
-10 9 0 16 -4 16 -10 0 -5 7 -10 15 -10 8 0 23 -9 32 -20 10 -11 22 -20 27
-20 5 0 17 -7 26 -15 20 -18 57 -9 65 16 8 24 -1 38 -30 49 -18 7 -22 15 -19
32 l5 23 -10 -22 c-6 -13 -13 -23 -16 -23 -4 0 -5 10 -4 23 4 28 -8 48 -25 41
-9 -3 -13 1 -13 13 1 10 -2 17 -8 16 -5 0 -11 18 -11 42 -1 24 -8 50 -15 58
-20 19 -13 107 8 107 8 0 12 4 8 9 -3 6 9 8 29 4 28 -4 36 -1 45 16 7 11 21
21 31 21 11 0 20 5 20 10 0 6 -9 10 -21 10 -14 0 -19 5 -16 14 6 16 -26 50
-37 39 -4 -4 -11 -2 -15 5 -6 10 -14 10 -36 2 -35 -13 -65 10 -65 50 0 15 -13
40 -30 60 -30 33 -39 60 -20 60 5 0 7 7 3 16 -3 8 -11 13 -18 10 -7 -2 -19 4
-28 14 -15 18 -14 19 5 26 20 6 19 8 -11 20 -23 10 -31 19 -27 29 3 9 2 13 -4
10 -5 -3 -17 6 -26 21 -15 22 -15 27 -3 35 11 7 11 9 0 9 -8 0 -11 6 -6 18 21
52 7 156 -21 145 -8 -3 -14 -1 -14 5 0 5 -17 14 -37 19 -21 5 -38 15 -38 22 0
16 -34 41 -57 41 -10 0 -18 5 -18 11 0 6 -7 9 -15 5 -10 -3 -15 1 -15 13 0 20
-16 37 -40 43 -21 4 -40 24 -40 42 0 19 -26 27 -67 22 -18 -3 -33 0 -33 5 0 6
-5 7 -10 4 -6 -4 -29 13 -51 37 -22 24 -46 42 -52 40 -7 -2 -9 -1 -5 3 12 12
-40 89 -61 90 -12 1 -21 -2 -21 -7 0 -4 -9 -8 -20 -8 -11 0 -20 4 -20 10 0 5
-7 7 -15 4 -8 -4 -12 -11 -8 -17 3 -6 1 -7 -6 -3 -6 4 -26 -1 -44 -12 -17 -10
-37 -18 -44 -18 -13 1 -53 44 -53 58 0 4 -11 8 -25 8 -27 0 -61 41 -52 64 6
15 -27 56 -46 57 -7 0 -35 1 -64 2 -43 2 -54 6 -64 24 -7 13 -17 23 -22 23 -5
0 -5 6 2 13 8 11 3 17 -25 30 -41 20 -91 22 -97 5 -3 -10 -7 -10 -20 1 -12 9
-30 11 -64 6 -27 -4 -45 -3 -41 1 4 4 2 14 -5 22 -10 13 -9 14 2 7 12 -7 13 0
8 40 -4 26 -7 54 -7 62 0 9 -6 13 -14 10 -10 -4 -14 0 -11 13 2 10 -2 17 -9
16 -17 -2 -40 -27 -44 -46 -2 -8 -11 -22 -20 -30 -19 -15 -22 -22 -22 -41 0
-6 -7 -9 -14 -6 -10 4 -13 1 -9 -9 7 -20 -7 -18 -23 4 -13 16 -14 16 -8 0 3
-10 1 -18 -5 -18 -6 0 -11 5 -11 10 0 19 -55 9 -82 -14 -14 -13 -28 -37 -30
-52 -2 -21 -8 -29 -21 -28 -13 2 -16 -3 -12 -17 4 -11 2 -19 -4 -19 -6 0 -11
7 -11 15 0 18 -12 19 -28 3 -9 -9 -12 -9 -12 1 0 9 -11 11 -40 7 -28 -4 -40
-2 -40 7 0 9 -2 9 -8 0 -4 -7 -12 -9 -18 -5 -14 9 -14 43 -1 60 6 7 6 12 1 11
-19 -3 -49 3 -36 8 15 6 16 33 1 33 -8 0 -7 5 1 15 11 13 10 15 -1 10 -8 -2
-21 -1 -29 5 -12 8 -11 13 8 39 12 17 22 32 22 35 0 3 -13 19 -29 37 -20 22
-35 30 -46 25 -10 -3 -23 -2 -30 4 -10 8 -17 5 -29 -12z m219 -1942 c22 -1 65
-35 65 -51 -1 -5 -15 -19 -33 -30 -27 -18 -32 -27 -31 -58 2 -46 2 -47 37 -40
34 7 33 36 -1 41 -38 6 -24 18 23 20 25 1 57 9 71 18 24 16 25 16 31 -4 3 -12
10 -22 15 -22 5 0 6 4 3 10 -3 5 9 3 27 -4 20 -9 34 -23 36 -35 2 -12 8 -21
13 -21 6 0 5 -8 -1 -20 -13 -24 8 -89 22 -67 14 23 20 -23 7 -56 -7 -17 -15
-41 -16 -52 -9 -67 -21 -96 -60 -143 -45 -56 -50 -70 -56 -137 l-3 -40 -64 -3
c-77 -4 -140 13 -140 38 0 48 -67 134 -104 135 -11 0 -96 55 -96 62 0 2 10 -1
21 -8 21 -11 21 -11 3 15 -11 14 -24 24 -31 21 -6 -2 -17 3 -24 11 -8 10 -22
13 -38 9 -20 -4 -22 -3 -11 5 8 5 11 10 5 11 -38 5 -51 2 -61 -11 -10 -12 -14
-12 -30 0 -16 14 -17 13 -11 -3 5 -14 3 -16 -11 -9 -22 12 -42 5 -36 -12 8
-21 -47 -31 -58 -12 -5 9 -16 16 -23 16 -17 0 -20 16 -6 24 5 3 7 15 4 25 -3
10 0 22 6 25 7 5 9 0 5 -11 -4 -16 -4 -16 8 1 27 38 60 76 68 76 4 0 11 -10
15 -22 l8 -23 4 23 c4 18 11 22 40 22 26 0 50 -12 96 -46 34 -26 56 -41 50
-33 -20 21 -15 28 17 23 23 -4 30 -1 30 12 0 13 3 14 15 4 10 -9 15 -9 15 -1
0 20 20 12 30 -11 7 -19 9 -20 9 -4 1 13 6 17 20 13 15 -3 18 -1 14 12 -3 12
-1 11 11 -3 25 -31 19 -5 -8 35 -13 19 -44 45 -70 58 -25 13 -43 27 -41 31 7
11 -25 23 -52 21 -12 -1 -31 3 -42 8 -14 8 -22 8 -26 1 -5 -8 -11 -7 -20 0 -8
7 -19 9 -25 5 -6 -3 -10 3 -10 14 0 12 5 21 10 21 6 0 10 -4 10 -8 0 -5 7 -9
15 -9 9 0 14 6 11 14 -7 18 7 16 30 -4 13 -12 35 -18 66 -17 26 0 46 -2 45 -5
-4 -12 29 -48 50 -55 30 -9 76 16 78 42 1 12 -2 19 -6 16 -4 -2 -10 5 -14 16
-3 11 -11 20 -17 20 -5 0 -7 7 -4 16 3 8 2 12 -4 9 -16 -10 -12 7 7 27 9 10
11 18 5 18 -5 0 -8 9 -5 21 4 14 9 17 16 10 6 -6 16 -7 28 -1 14 8 16 6 12
-10 -6 -24 18 -27 37 -5 14 17 14 16 -15 34 l-20 13 20 -8 c11 -4 29 -7 40 -8z
m-309 -612 c18 -9 51 -36 74 -60 22 -24 40 -39 40 -33 0 7 10 5 25 -5 31 -21
35 -20 35 4 0 11 7 20 15 20 8 0 15 6 15 13 1 19 17 -13 24 -49 6 -26 3 -32
-19 -44 -31 -17 -32 -43 -3 -62 22 -15 22 -15 4 -61 -23 -61 -82 -126 -147
-162 -47 -26 -64 -30 -129 -29 -44 0 -97 7 -127 18 -103 35 -196 150 -206 256
-2 25 -2 35 0 22 4 -23 28 -26 28 -3 0 6 7 16 15 21 13 8 12 10 -2 10 -10 0
-18 5 -18 10 0 11 11 13 34 4 9 -3 16 -11 16 -18 0 -12 49 -12 107 0 21 4 39
1 54 -10 20 -14 24 -14 36 2 14 16 14 16 9 0 -5 -18 10 -26 16 -8 2 5 20 12
40 14 30 4 40 1 52 -16 26 -36 16 -40 -118 -41 -46 -1 -53 -3 -35 -10 67 -25
227 6 274 54 l20 20 -28 -11 c-16 -5 -33 -8 -38 -4 -13 8 -11 25 4 22 6 -2 13
2 14 7 1 6 -14 9 -32 8 -34 -2 -35 -2 -35 37 0 62 -58 98 -113 68 -37 -19 -48
-40 -42 -80 5 -36 4 -37 -19 -28 -35 13 -66 33 -66 43 0 17 42 62 73 79 41 22
109 23 153 2z m920 -15 c34 -21 46 -49 20 -49 -7 0 -21 11 -30 24 -47 73 -173
8 -137 -70 12 -27 12 -27 -25 -21 -25 4 -34 3 -27 -4 5 -5 24 -11 41 -12 32
-2 44 -21 20 -30 -7 -3 11 -8 40 -12 28 -4 52 -12 52 -17 0 -13 -94 0 -140 19
-28 11 -32 16 -20 24 12 8 10 9 -7 4 -14 -4 -31 0 -45 11 -13 9 -16 14 -7 11
9 -3 22 -1 30 4 12 8 12 10 0 18 -11 7 -6 17 23 49 68 73 146 92 212 51z m257
-158 c19 -32 22 -56 7 -46 -6 3 -7 -1 -4 -9 9 -22 -37 -95 -89 -143 -60 -55
-128 -77 -226 -71 -52 3 -90 12 -121 27 -56 29 -110 79 -110 104 0 10 -4 16
-9 13 -8 -5 -41 51 -41 68 0 14 18 4 29 -16 11 -23 11 -23 6 2 -14 59 -16 80
-7 80 5 0 15 -6 21 -13 6 -8 23 -12 41 -9 17 2 40 -2 53 -10 44 -29 115 -41
205 -36 96 6 139 22 166 62 23 35 57 34 79 -3z m-526 -207 c82 -83 226 -109
363 -65 36 11 80 21 98 21 29 0 34 -5 31 -26 0 -4 5 -10 11 -14 7 -4 9 -13 5
-20 -5 -7 -9 -29 -11 -48 -2 -20 -8 -39 -15 -42 -6 -4 -11 -11 -11 -16 1 -5
-5 -8 -11 -7 -7 2 -13 -8 -14 -22 -4 -45 -6 -54 -13 -50 -8 5 -45 -36 -45 -50
0 -5 -13 -9 -28 -9 -23 1 -28 -2 -24 -17 3 -11 1 -17 -4 -13 -5 3 -9 12 -9 20
0 8 -10 14 -25 14 -31 0 -103 63 -121 105 -7 17 -25 43 -41 59 -30 30 -83 70
-83 63 0 -3 -16 11 -35 30 -19 19 -35 43 -35 52 0 10 -13 32 -29 50 -18 20
-27 39 -24 49 6 14 8 13 17 -4 6 -10 30 -38 53 -60z m1600 -2130 c9 16 11 16
26 2 8 -9 21 -16 27 -16 6 0 10 -8 9 -17 -2 -10 3 -29 10 -43 11 -19 11 -25 1
-28 -9 -3 -9 -6 1 -13 12 -8 12 -10 0 -18 -8 -5 -11 -16 -6 -30 4 -12 3 -27
-2 -34 -13 -17 -16 -80 -3 -72 5 3 10 2 10 -4 0 -5 -5 -11 -11 -13 -7 -2 -7
-12 0 -33 10 -28 10 -29 -4 -10 -13 17 -17 18 -25 5 -6 -9 -5 -17 2 -21 7 -4
7 -13 -1 -28 -10 -18 -9 -21 6 -22 11 0 13 -3 5 -6 -10 -4 -10 -8 -1 -19 9
-11 6 -22 -9 -49 -12 -19 -17 -37 -11 -40 18 -12 9 -33 -31 -73 -28 -27 -37
-43 -29 -48 7 -4 9 -3 5 4 -3 6 -2 13 4 17 17 10 11 -27 -7 -48 -17 -19 -17
-20 4 -9 19 10 20 9 15 -10 -3 -14 -1 -19 6 -14 7 4 12 3 12 -2 0 -6 -7 -13
-16 -16 -10 -4 -14 -12 -10 -22 4 -9 1 -24 -6 -32 -8 -10 -9 -13 -2 -9 17 10
25 -19 10 -32 -7 -6 -17 -7 -22 -3 -4 4 -2 -2 6 -13 8 -11 19 -23 24 -26 11
-9 -3 -31 -15 -24 -5 3 -6 -1 -3 -9 8 -20 -10 -21 -30 -1 -13 14 -15 13 -13
-4 1 -11 9 -22 19 -24 19 -5 26 -37 8 -37 -5 0 -10 5 -10 12 0 6 -3 8 -6 5 -4
-4 -2 -12 4 -19 11 -14 5 -65 -9 -74 -16 -9 -10 -33 12 -44 28 -15 37 -4 13
16 -10 8 -13 12 -5 8 11 -5 13 -3 8 9 -3 9 -2 19 2 22 12 7 21 -20 21 -61 0
-22 -6 -37 -15 -40 -16 -7 -21 -34 -6 -34 5 0 11 -7 15 -15 3 -8 0 -14 -7 -12
-7 1 -11 -6 -11 -15 2 -18 -16 -20 -28 -3 -4 5 -11 6 -15 1 -4 -4 8 -20 27
-36 19 -16 32 -32 28 -36 -5 -4 -3 -13 3 -21 14 -17 -2 -17 -20 0 -11 10 -12
7 -7 -15 3 -15 1 -30 -5 -33 -6 -4 -8 -13 -5 -20 3 -8 0 -16 -7 -19 -9 -3 -8
-7 2 -14 8 -6 9 -12 3 -16 -7 -4 -7 -18 -1 -42 6 -21 7 -40 1 -47 -14 -18 -23
-49 -13 -42 12 7 41 -4 41 -16 0 -4 -8 -5 -17 -2 -15 6 -16 4 -6 -9 7 -8 10
-18 6 -21 -3 -4 0 -7 8 -7 8 0 4 -8 -11 -20 -28 -22 -21 -26 13 -8 20 10 21
10 9 -5 -8 -9 -10 -22 -6 -28 4 -7 0 -17 -10 -25 -14 -9 -14 -14 -4 -20 7 -5
17 -9 22 -9 5 0 11 -6 14 -14 3 -8 0 -11 -6 -7 -6 3 -13 2 -17 -4 -3 -5 -1
-10 4 -10 6 0 11 -11 11 -25 0 -13 8 -29 18 -34 11 -7 12 -11 4 -11 -10 0 -12
-8 -7 -30 4 -20 3 -30 -5 -30 -6 0 -8 -5 -4 -12 5 -8 2 -9 -11 -4 -18 6 -18 6
-3 -11 19 -22 28 -64 32 -157 3 -63 2 -67 -12 -50 -14 18 -14 18 -8 1 3 -11 3
-24 -1 -30 -4 -7 -6 -25 -4 -40 1 -17 -5 -37 -15 -48 -9 -10 -14 -19 -9 -19 4
0 2 -7 -5 -15 -7 -9 -10 -25 -6 -41 6 -22 5 -24 -8 -12 -8 7 -13 14 -11 16 2
2 -5 12 -15 22 -10 10 -18 33 -19 56 -1 53 -7 94 -19 124 -5 14 -10 30 -12 35
-1 6 -20 47 -43 93 -40 79 -101 163 -199 271 -24 26 -61 70 -83 97 -22 26 -65
75 -96 109 -129 139 -190 211 -207 244 l-19 36 37 110 c21 60 62 173 93 250
79 201 153 394 167 440 22 70 82 219 93 234 15 18 83 61 97 61 5 0 38 13 72
29 104 48 142 64 168 68 14 2 29 9 35 14 6 6 12 3 16 -8 5 -16 6 -16 16 1z"/>
<path d="M3785 5344 c-10 -36 -23 -68 -29 -70 -11 -4 -147 -22 -204 -27 -22
-2 -44 -15 -68 -39 -32 -31 -37 -45 -47 -111 -10 -67 -8 -84 11 -159 12 -45
39 -125 58 -176 36 -93 53 -112 100 -112 17 0 17 66 1 88 -6 8 -6 12 2 12 6 0
10 10 10 23 -1 17 -2 18 -6 4 -3 -10 -10 -16 -16 -14 -15 5 -16 105 -2 129 7
14 5 21 -13 33 -25 18 -30 40 -7 32 8 -4 17 -2 20 3 3 4 -1 10 -7 13 -10 3
-10 8 -2 16 8 9 15 6 28 -13 10 -16 22 -23 31 -20 11 4 15 -1 16 -17 1 -13 2
-28 4 -34 1 -5 3 -22 3 -37 2 -37 17 -35 32 3 9 20 16 27 23 20 6 -6 19 -3 37
11 34 25 60 16 35 -12 -11 -12 -13 -20 -6 -25 6 -3 11 -2 11 3 0 5 12 7 26 4
16 -3 29 1 34 8 5 8 18 14 29 15 11 1 18 -2 15 -6 -2 -4 0 -10 6 -14 5 -3 10
1 10 9 0 18 51 17 58 -2 3 -9 -3 -11 -24 -6 -18 5 -25 3 -20 -4 3 -6 22 -9 41
-6 33 4 35 3 35 -27 0 -27 2 -30 15 -19 13 11 18 11 28 0 10 -10 9 -12 -5 -7
-10 4 -18 2 -18 -3 0 -15 33 -50 47 -50 7 0 13 -4 13 -9 0 -4 34 -16 77 -26
68 -16 74 -19 58 -32 -18 -12 -18 -13 -1 -13 10 0 20 -9 23 -20 3 -11 10 -20
15 -20 5 0 6 4 3 10 -3 6 1 7 9 4 9 -3 16 -12 16 -20 0 -8 4 -14 8 -14 4 0 13
44 19 98 17 159 39 189 256 367 114 94 138 119 57 61 -28 -20 -56 -36 -63 -36
-7 0 -17 -4 -23 -10 -16 -16 -137 -43 -194 -42 -31 1 -73 9 -95 18 -22 10 -44
17 -48 16 -16 -4 -53 22 -86 60 -24 28 -36 36 -42 27 -9 -15 -81 41 -195 151
l-81 79 -18 -65z"/>
<path d="M3573 3702 c-65 -2 -93 -6 -93 -15 0 -7 20 -190 45 -407 24 -217 54
-489 66 -605 12 -115 23 -211 24 -213 2 -2 38 15 81 36 44 22 89 43 102 47 17
5 22 14 22 40 0 18 -6 36 -12 39 -10 5 -10 7 0 12 10 5 9 9 -5 20 -15 11 -16
13 -2 14 12 0 14 8 11 33 -3 17 -10 36 -16 40 -8 6 -7 10 2 14 10 4 9 8 -5 19
-17 13 -17 13 1 14 12 0 16 5 12 16 -3 9 -6 24 -6 35 0 11 -7 19 -17 19 -16 1
-16 2 1 15 17 13 18 15 3 15 -9 0 -17 5 -17 10 0 6 7 10 15 10 23 0 14 57 -10
66 -18 6 -18 7 5 11 l25 5 -26 12 c-21 9 -24 15 -18 36 7 24 7 24 8 3 1 -13 6
-23 12 -23 7 0 9 9 5 23 -3 12 -6 25 -6 30 0 4 -8 7 -17 8 -15 0 -15 2 2 8
l20 8 -20 6 c-16 5 -20 16 -20 49 0 24 -4 53 -8 66 -7 18 -5 22 10 22 38 0 42
11 32 97 -10 87 -37 166 -64 180 -12 7 -21 36 -30 97 -7 48 -14 88 -16 89 -2
1 -46 1 -96 -1z"/>
<path d="M4450 3485 c0 -65 190 -917 210 -938 3 -4 2 23 -3 60 -5 37 -13 70
-16 73 -7 5 -31 104 -37 151 -2 14 -8 38 -14 54 -6 15 -8 36 -5 46 4 11 2 19
-3 19 -6 0 -13 24 -17 53 -8 60 -40 202 -60 267 -8 25 -21 83 -30 130 -15 76
-25 109 -25 85z"/>
<path d="M1460 3066 c0 -81 -67 -334 -174 -661 -63 -192 -73 -232 -75 -283 -1
-13 -5 -21 -10 -18 -11 7 -25 -49 -17 -63 4 -5 1 -11 -5 -13 -6 -2 -12 -19
-15 -38 -2 -19 -13 -66 -24 -105 -11 -38 -22 -88 -25 -110 -3 -22 -14 -78 -25
-125 -11 -47 -22 -110 -25 -140 -3 -30 -9 -64 -12 -75 -3 -10 -7 -44 -9 -75
-14 -212 -14 -224 -4 -203 10 25 23 32 14 8 -6 -14 16 -45 33 -45 4 -1 19 -10
33 -21 21 -18 22 -23 10 -32 -19 -15 -43 -83 -35 -97 4 -6 1 -17 -5 -25 -6 -8
-9 -19 -5 -25 3 -5 2 -10 -4 -10 -12 0 -2 -32 13 -42 8 -6 8 -10 0 -15 -11 -8
-26 -65 -15 -59 4 3 12 -7 18 -21 10 -21 10 -24 -2 -19 -9 3 -20 -4 -26 -16
-9 -16 -9 -23 -1 -26 8 -2 6 -12 -5 -28 -12 -19 -18 -22 -24 -12 -7 10 -9 9
-9 -4 0 -10 4 -18 9 -18 5 0 7 -9 4 -19 -9 -34 30 -94 122 -190 122 -127 139
-134 303 -126 264 14 492 50 520 84 8 9 10 10 6 2 -8 -16 -1 -15 86 18 38 14
54 25 52 35 -2 10 4 16 14 16 9 0 23 8 31 17 10 12 12 13 8 3 -4 -9 -1 -8 8 3
8 10 27 20 43 23 15 3 32 8 37 11 6 3 20 7 31 9 12 1 30 5 41 9 11 4 2 -5 -20
-19 -22 -14 -43 -26 -46 -26 -4 0 -3 -17 1 -38 14 -64 21 -170 10 -144 -5 12
-12 22 -15 22 -13 0 -22 -46 -11 -59 6 -8 11 -25 11 -37 0 -37 20 -33 23 5 4
34 28 61 80 89 35 18 157 15 317 -8 306 -42 713 -82 1003 -96 72 -4 132 -11
132 -15 0 -4 24 -6 53 -4 40 3 45 2 22 -4 -16 -5 -22 -9 -12 -10 12 -1 17 -10
17 -32 0 -31 0 -32 43 -25 29 4 38 3 27 -4 -21 -14 -114 -12 -128 2 -9 9 -12
8 -12 -5 0 -9 6 -17 13 -18 33 -3 111 0 135 5 26 5 26 5 -3 -9 -16 -8 -50 -15
-75 -16 -35 -1 -40 -2 -20 -8 18 -5 26 -15 28 -34 4 -32 32 -36 87 -13 19 8
35 11 35 6 0 -5 -19 -15 -42 -21 -24 -7 -47 -17 -53 -22 -10 -9 0 -8 71 9 19
5 25 4 20 -5 -5 -7 1 -11 15 -11 19 0 21 4 16 30 -5 20 1 46 18 82 23 50 24
60 18 158 -17 245 -3 528 26 562 12 14 33 -9 41 -46 4 -20 16 -128 26 -239 10
-111 20 -191 22 -177 2 14 -4 119 -14 235 -11 115 -19 233 -18 260 1 55 19
132 36 152 10 13 6 189 -6 200 -2 3 -37 -20 -78 -51 -40 -31 -76 -56 -80 -56
-17 0 5 27 35 45 18 10 34 21 37 24 12 14 70 51 80 51 5 0 10 4 10 10 0 5 10
15 23 21 21 11 21 11 5 -7 -15 -18 -16 -32 -8 -133 5 -62 11 -115 13 -118 5
-4 7 0 55 132 28 77 63 159 83 198 19 34 48 172 39 181 -5 5 -22 -2 -42 -16
-18 -14 -73 -47 -123 -72 -49 -26 -103 -60 -120 -74 l-30 -27 28 31 c15 17 65
52 112 78 46 26 100 60 121 77 20 16 42 29 49 29 7 0 25 14 39 31 28 33 34 78
16 123 -12 34 -28 33 -36 -1 -8 -30 -26 -53 -43 -53 -6 0 -11 -4 -11 -10 0 -5
-4 -10 -10 -10 -9 0 -42 -25 -76 -58 -8 -7 -14 -10 -14 -6 0 5 -5 3 -12 -4
-16 -16 -47 -15 -54 2 -10 26 29 76 105 133 68 52 73 57 56 69 -18 13 -17 16
16 56 29 37 34 51 34 95 0 42 -5 57 -27 80 l-27 28 25 28 c34 40 33 99 -2 134
-16 16 -28 22 -33 15 -8 -14 -56 -9 -77 9 -10 8 -40 14 -75 14 -67 0 -78 15
-30 40 39 20 61 52 61 90 l0 30 -20 -25 c-10 -14 -14 -27 -9 -31 13 -8 -20
-35 -52 -43 -15 -3 -73 -1 -130 4 -84 8 -107 14 -119 29 -26 34 -62 42 -91 21
-20 -16 -25 -16 -29 -5 -4 12 -9 13 -30 2 -14 -8 -30 -12 -36 -10 -6 2 -17 -3
-24 -12 -7 -8 -20 -15 -29 -15 -9 0 -21 -4 -27 -8 -5 -5 -35 -14 -66 -21 -37
-8 -58 -17 -58 -27 0 -7 -11 -16 -25 -20 -14 -3 -25 -10 -25 -15 0 -11 67 -29
110 -29 41 0 126 -22 160 -40 53 -29 126 -30 213 -4 114 33 226 29 279 -10 20
-15 28 -52 10 -48 -6 1 -11 -1 -10 -5 2 -5 -1 -9 -5 -10 -5 -1 -16 -10 -25
-20 -9 -10 -26 -20 -37 -21 -37 -7 -79 -35 -126 -83 -26 -27 -44 -50 -42 -53
3 -2 -5 -9 -16 -16 -12 -6 -19 -15 -16 -20 3 -4 -7 -13 -22 -18 -16 -6 -22
-11 -15 -11 6 -1 12 -7 12 -15 0 -17 73 -33 78 -17 2 6 16 2 35 -9 22 -14 44
-18 76 -15 25 2 38 1 29 -1 -10 -3 -15 -11 -11 -20 5 -13 -28 -65 -90 -139
-17 -20 -40 -35 -61 -39 -19 -4 -39 -13 -46 -21 -7 -8 -16 -12 -21 -9 -5 3 -9
4 -9 2 0 -2 -4 -18 -10 -36 -8 -28 -7 -32 5 -22 10 8 19 8 34 0 12 -6 21 -8
21 -4 0 3 7 1 15 -6 8 -6 18 -9 24 -6 13 8 61 -11 61 -24 0 -22 -63 -89 -90
-95 -14 -3 -27 -11 -28 -18 -1 -7 -3 -27 -5 -44 -3 -18 0 -33 5 -33 5 0 6 -5
3 -10 -3 -6 -1 -10 4 -10 22 0 10 -40 -23 -75 -27 -28 -40 -35 -61 -31 -15 3
-32 10 -39 15 -7 6 -16 8 -19 4 -4 -3 -7 -2 -7 3 0 5 -14 10 -31 11 -26 2 -29
0 -19 -12 7 -8 10 -20 7 -27 -4 -9 -6 -8 -6 3 -1 11 -14 16 -48 18 -26 1 -50
7 -54 13 -4 7 -8 5 -12 -3 -4 -9 -8 -10 -14 -4 -4 6 -19 11 -33 12 -64 6 -116
16 -124 24 -16 15 -46 10 -46 -6 0 -13 -4 -14 -20 -5 -15 8 -20 8 -20 -1 0 -8
-4 -8 -15 1 -12 10 -18 10 -30 0 -18 -15 -34 -6 -30 18 3 22 -12 52 -28 52 -8
0 -8 -3 -2 -8 6 -4 12 -17 12 -30 2 -21 0 -22 -14 -10 -12 9 -15 10 -9 1 13
-22 -28 -15 -48 8 -13 16 -15 24 -6 29 7 4 -2 10 -24 14 -20 4 -41 4 -46 1
-11 -7 -60 42 -57 57 1 6 -4 13 -12 16 -8 3 -11 0 -7 -7 4 -6 3 -11 -2 -11 -6
0 -12 6 -15 13 -3 9 -18 12 -41 11 -19 -2 -38 1 -41 6 -4 7 -13 6 -25 0 -13
-7 -21 -7 -26 2 -5 7 -3 8 7 3 8 -5 11 -4 6 0 -13 15 -49 17 -42 3 4 -7 -7 2
-24 21 -30 32 -31 33 -29 10 2 -13 8 -27 13 -31 6 -5 6 -8 -2 -8 -7 0 -17 8
-23 18 -8 12 -13 13 -16 4 -8 -17 -25 -5 -18 12 3 8 1 17 -5 21 -6 3 -14 -1
-17 -10 -4 -9 -13 -14 -21 -11 -8 3 -11 1 -8 -4 3 -6 1 -10 -4 -10 -6 0 -11 5
-11 11 0 5 -5 7 -10 4 -6 -3 -14 4 -18 16 -8 19 -9 20 -15 5 -5 -13 -11 -15
-26 -6 -16 8 -22 6 -31 -10 -6 -11 -20 -20 -31 -20 -13 0 -18 4 -13 12 4 7 3
8 -4 4 -9 -5 -9 -13 -1 -27 12 -24 2 -40 -11 -19 -6 10 -10 11 -10 3 0 -14
-31 -6 -41 10 -4 5 -12 6 -19 2 -8 -5 -6 -13 7 -28 17 -19 17 -20 1 -14 -10 4
-18 2 -18 -3 0 -6 7 -10 15 -10 8 0 15 -4 15 -10 0 -15 -11 -12 -32 7 -16 14
-21 15 -28 4 -4 -8 -6 -20 -3 -27 3 -9 -3 -11 -19 -7 -19 4 -20 3 -8 -7 12 -9
10 -10 -10 -4 -14 4 -27 11 -28 15 -2 5 -9 6 -14 3 -6 -4 -8 -2 -5 4 9 14 -3
43 -14 36 -5 -3 -7 -9 -4 -14 9 -15 -49 -6 -63 10 -8 8 -11 9 -7 3 4 -9 -3
-13 -24 -13 -17 0 -31 5 -31 12 0 6 -3 8 -6 5 -4 -4 -1 -13 6 -22 12 -14 0
-22 -13 -8 -11 10 -57 13 -57 2 0 -5 -7 -9 -15 -9 -18 0 -20 -16 -2 -23 6 -3
-3 -5 -20 -4 -26 0 -33 4 -33 20 0 29 -11 14 -16 -23 -4 -20 -2 -30 5 -26 5 4
13 2 16 -4 4 -6 3 -9 -2 -8 -16 5 -93 -37 -89 -48 3 -7 -3 -10 -15 -7 -10 3
-19 11 -19 19 0 18 -17 27 -26 13 -4 -8 -3 -9 4 -5 7 4 12 2 12 -3 0 -6 -11
-11 -25 -11 -15 0 -25 -6 -25 -15 0 -12 -4 -13 -27 -2 -20 9 -23 13 -10 15 10
2 15 8 12 13 -4 5 -1 9 4 9 6 0 11 5 11 10 0 17 -14 10 -33 -16 -15 -20 -16
-28 -7 -39 9 -11 9 -15 1 -15 -14 0 -30 40 -24 57 3 7 10 10 16 6 6 -4 7 -1 2
7 -6 10 -11 10 -20 -3 -14 -20 -30 -23 -19 -4 5 8 2 8 -9 -2 -20 -16 -22 -22
-6 -19 6 2 14 -3 17 -11 3 -9 0 -11 -7 -7 -7 4 -19 2 -27 -5 -12 -10 -13 -9
-9 3 3 8 -1 21 -10 28 -13 11 -15 10 -9 -3 9 -24 -5 -41 -22 -26 -9 8 -11 15
-5 18 6 4 1 12 -11 20 -19 12 -20 11 -14 -13 7 -29 -14 -34 -25 -6 -4 11 -10
7 -22 -15 -9 -17 -16 -25 -17 -19 0 16 -50 5 -57 -12 -3 -8 -11 -14 -19 -14
-9 0 -11 -6 -7 -18 6 -15 5 -15 -10 -3 -15 12 -20 11 -38 -5 -13 -12 -19 -14
-17 -5 3 15 -49 34 -66 24 -6 -4 0 -10 14 -14 24 -7 24 -7 3 -8 -13 -1 -23 -5
-23 -10 0 -4 -11 -6 -25 -3 -14 2 -25 9 -25 14 0 5 5 6 10 3 6 -3 10 -1 10 4
0 14 -17 14 -26 0 -5 -8 -10 -6 -16 5 -11 20 -32 21 -24 1 7 -20 4 -19 -30 10
-17 15 -36 23 -46 19 -10 -3 -18 0 -18 6 0 6 5 8 10 5 6 -3 10 0 10 8 0 20
-44 40 -70 32 -17 -5 -21 -4 -15 5 5 9 4 11 -4 6 -6 -4 -8 -12 -5 -18 5 -7 0
-9 -14 -6 -12 3 -23 1 -25 -6 -2 -6 -8 -7 -13 -3 -4 4 -3 16 4 27 9 14 9 20
-1 23 -9 4 -9 6 1 6 6 1 12 11 12 23 0 12 3 18 6 15 4 -4 16 11 28 33 38 71
147 172 236 219 57 31 153 57 200 55 14 0 47 -1 73 -2 27 -1 46 -6 43 -10 -2
-4 3 -8 12 -9 9 -1 56 -4 105 -9 50 -4 87 -3 87 2 0 5 -41 128 -91 274 -49
146 -87 249 -83 230 9 -49 12 -99 5 -98 -19 2 -19 -4 0 -23 16 -16 18 -23 9
-35 -7 -7 -15 -12 -19 -9 -4 2 -14 -5 -21 -16 -15 -19 -36 -28 -25 -9 3 6 1
10 -4 10 -23 0 -9 -22 20 -32 20 -7 27 -13 19 -18 -7 -4 -25 -1 -42 7 -16 8
-32 12 -35 9 -4 -3 0 -6 8 -6 11 0 11 -2 -1 -10 -23 -15 -33 -12 -25 8 4 12 3
14 -5 6 -6 -6 -13 -26 -15 -44 -3 -19 -10 -38 -16 -44 -9 -8 -10 -8 -5 1 3 6
0 10 -9 9 -18 -3 -32 -16 -17 -16 7 0 12 -12 12 -26 0 -14 -4 -23 -10 -19 -5
3 -10 1 -10 -5 0 -12 -47 -33 -74 -32 -13 1 -17 -4 -13 -19 5 -20 5 -20 -13
-4 -11 10 -20 13 -24 6 -10 -15 -99 -2 -113 17 -12 15 -18 9 -13 -13 1 -5 -4
-5 -11 2 -10 10 -9 16 2 29 12 16 12 17 -5 11 -15 -6 -18 -3 -14 18 4 17 1 25
-9 25 -9 0 -11 5 -7 13 4 6 -2 3 -14 -7 -32 -28 -36 -15 -6 17 27 29 28 28
-38 30 -15 1 -24 5 -21 9 2 5 14 6 25 2 17 -5 20 -3 15 11 -5 11 -3 15 5 12 7
-2 12 -10 11 -16 -4 -16 0 -14 21 11 15 18 16 20 2 15 -11 -5 -16 -1 -16 14 0
11 4 18 9 15 5 -3 11 1 14 8 4 10 15 13 33 10 20 -4 25 -1 21 10 -3 8 1 17 10
20 9 4 14 9 11 12 -3 2 -17 0 -31 -5 -19 -8 -27 -7 -31 4 -3 8 -1 17 4 20 6 4
10 1 10 -5 0 -6 5 -8 11 -4 8 4 7 9 -2 15 -11 6 -11 11 -1 21 6 6 12 20 12 29
0 9 14 22 30 29 40 16 39 34 -1 26 -29 -5 -30 -4 -18 11 12 15 12 16 -4 10
-12 -4 -16 -3 -11 4 4 6 0 16 -7 21 -11 8 -10 9 3 5 9 -3 19 -1 22 6 3 9 7 9
14 -1 7 -10 11 -10 22 3 12 15 11 16 -5 13 -10 -1 -20 3 -22 10 -3 7 1 10 11
6 18 -7 21 7 5 23 -13 13 -2 36 12 27 15 -9 59 4 59 17 0 7 -5 8 -13 3 -7 -5
-4 -1 6 9 16 14 16 17 4 17 -9 0 -22 -6 -29 -13 -15 -15 -48 -19 -48 -5 0 4 5
8 10 8 12 0 33 50 25 59 -3 3 -10 0 -14 -8 -7 -10 -10 -9 -14 3 -5 12 0 16 15
16 18 0 19 2 7 17 -12 14 -12 16 0 8 11 -6 13 -4 8 8 -3 10 -2 17 3 17 6 0 10
8 10 18 0 13 2 14 9 4 7 -11 9 -11 14 2 4 9 2 16 -4 16 -6 0 -9 7 -6 14 4 10
1 13 -9 9 -7 -3 -14 0 -14 5 0 6 10 12 23 14 14 2 23 10 24 23 0 11 4 31 8 43
6 18 10 20 16 10 7 -10 9 -9 9 5 0 9 5 17 10 17 6 0 10 4 10 10 0 5 -7 7 -15
4 -22 -9 -18 9 5 29 12 10 18 22 15 27 -4 6 1 7 11 3 13 -5 15 -2 10 18 -3 13
-3 18 0 12 3 -7 11 -13 17 -13 5 0 7 3 4 6 -3 4 -2 14 3 24 6 12 5 17 -5 17
-8 0 -12 -4 -9 -9 3 -4 -2 -5 -12 -1 -14 5 -13 8 7 24 17 13 27 15 36 7 7 -6
13 -7 14 -2 0 5 5 -2 10 -15 5 -13 12 -22 14 -19 5 5 -123 489 -131 497 -2 2
-4 -8 -4 -23z m2334 -2471 c37 -366 36 -335 6 -335 -51 0 -639 40 -745 50
-233 23 -670 82 -680 92 -7 8 -5 9 8 5 9 -4 28 -2 41 3 32 12 216 147 360 264
21 17 46 35 55 40 9 5 34 21 56 35 66 42 147 69 228 76 27 2 62 7 78 10 20 5
29 3 29 -6 0 -9 5 -8 18 3 27 24 47 28 145 28 51 -1 114 0 142 0 50 1 168 29
202 49 23 13 24 6 57 -314z"/>
<path d="M4755 2266 c2 -13 8 -33 15 -46 11 -20 20 -62 23 -101 1 -9 7 -15 13
-12 17 6 28 -35 14 -51 -8 -11 -2 -36 26 -106 20 -50 43 -97 50 -104 7 -8 11
-16 8 -18 -7 -7 46 -118 57 -118 5 0 8 -3 7 -7 -3 -17 15 -43 29 -43 12 0 13
-3 4 -13 -8 -10 -3 -25 22 -62 17 -27 37 -57 44 -68 11 -19 11 -19 15 -1 5 18
5 18 13 -1 5 -11 15 -24 22 -28 7 -5 11 -12 8 -18 -4 -5 0 -9 9 -9 19 0 26 21
13 45 -9 18 -9 19 6 6 10 -7 17 -20 17 -27 0 -8 6 -14 14 -14 8 0 18 -5 21
-10 4 -7 -2 -9 -18 -5 -33 9 -44 -19 -17 -42 11 -10 20 -25 20 -35 0 -15 4
-16 28 -8 24 9 25 9 9 -4 -15 -12 -16 -15 -2 -26 9 -7 14 -19 11 -26 -3 -8 0
-11 10 -7 7 3 14 0 14 -5 0 -6 15 -12 32 -14 37 -3 53 -34 18 -34 -13 0 -19 5
-16 13 3 7 -2 13 -10 13 -34 0 4 -98 39 -100 14 0 7 20 -13 32 -11 7 -20 17
-20 22 0 4 7 3 15 -4 8 -7 15 -8 15 -3 0 5 9 19 19 30 20 21 20 21 -1 26 -11
3 -17 10 -13 16 3 6 0 12 -7 12 -7 1 -17 2 -23 4 -5 1 -15 3 -22 3 -6 1 -10
14 -9 29 2 17 -3 33 -13 40 -9 7 -11 13 -5 13 19 0 37 -29 31 -50 -3 -11 -1
-23 4 -26 5 -3 9 4 9 15 0 12 6 21 13 21 7 1 5 6 -5 14 -10 7 -18 24 -18 37 0
16 -3 20 -9 11 -6 -10 -11 -9 -22 4 -11 15 -12 16 0 10 9 -6 12 -5 9 5 -3 8
-10 13 -16 12 -6 -2 -16 7 -23 18 -7 13 -7 19 -1 15 6 -3 13 -2 17 4 3 5 -1
10 -10 10 -9 0 -15 7 -13 17 2 10 -7 22 -22 30 -18 9 -20 13 -7 13 9 0 17 4
17 10 0 5 -8 6 -17 3 -16 -6 -16 -4 -5 9 11 14 10 16 -8 11 -11 -3 -23 -10
-27 -16 -3 -6 -1 -7 5 -3 8 5 10 2 6 -8 -9 -23 -24 -9 -24 20 0 14 4 23 9 20
5 -3 9 6 9 21 0 24 -2 25 -13 10 -14 -19 -31 -22 -40 -7 -3 5 0 7 7 5 9 -4 14
2 15 15 1 14 -4 20 -20 20 -20 0 -20 0 -1 16 12 10 15 17 8 20 -7 3 -10 14 -7
24 3 11 0 20 -6 20 -6 0 -11 -5 -11 -11 0 -5 -4 -7 -10 -4 -15 10 -12 35 5 35
8 0 15 4 15 9 0 5 -10 7 -22 3 -15 -3 -19 -2 -14 7 9 14 -12 43 -25 35 -5 -3
-9 0 -9 5 0 6 6 11 13 11 6 0 4 5 -6 11 -12 7 -16 17 -12 30 5 14 0 21 -17 28
-13 5 -27 6 -31 4 -12 -7 -36 28 -37 53 0 24 -31 64 -49 64 -7 0 -10 4 -6 9 3
5 1 12 -5 16 -6 4 -8 11 -5 16 3 5 -2 6 -11 2 -11 -4 -15 -3 -11 4 10 17 -3
43 -22 43 -12 0 -13 2 -3 9 10 6 10 11 -3 21 -11 9 -14 22 -10 37 4 16 1 22
-7 21 -7 -2 -13 4 -13 12 0 8 5 14 12 13 8 -2 10 4 6 15 -15 39 -51 53 -48 18z"/>
<path d="M3571 1418 c-8 -22 -15 -26 -37 -22 -18 3 -34 -2 -48 -14 -11 -11
-27 -21 -35 -24 -8 -2 -4 -8 13 -16 18 -8 26 -8 26 -1 0 8 5 7 15 -1 12 -10
15 -9 15 6 0 15 2 16 9 5 6 -9 18 -11 35 -7 19 5 28 2 32 -9 8 -20 24 -19 24
1 0 13 3 14 13 6 10 -9 19 -7 37 5 13 9 21 12 18 7 -4 -5 15 -9 42 -9 38 0 47
2 42 15 -5 13 -4 13 12 1 19 -16 91 -21 140 -11 28 5 28 6 12 23 -10 9 -33 17
-52 17 -19 0 -34 4 -34 8 0 14 -80 8 -90 -8 -8 -13 -10 -13 -10 1 0 18 -37 33
-46 18 -3 -5 -10 -9 -15 -9 -6 0 -7 5 -4 10 3 6 1 10 -4 10 -6 0 -11 -4 -11
-10 0 -5 -9 -10 -20 -10 -11 0 -20 -5 -20 -11 0 -5 -4 -8 -9 -5 -5 3 -7 16 -5
29 2 12 1 16 -2 9 -5 -10 -9 -9 -19 5 -13 17 -14 16 -24 -9z"/>
<path d="M3265 1359 c-4 -6 -13 -8 -21 -5 -7 3 -18 -4 -24 -14 -13 -23 -47
-21 -65 4 -8 10 -16 13 -19 7 -3 -5 0 -11 6 -14 10 -3 10 -8 2 -17 -8 -8 -14
-9 -18 -1 -4 6 -12 11 -17 11 -5 0 0 -18 11 -41 18 -34 24 -39 43 -33 12 5 35
8 50 9 15 0 32 7 37 15 7 10 10 11 10 3 0 -17 19 -16 54 2 15 8 39 13 52 11
21 -4 23 -2 14 14 -15 28 -12 40 8 33 16 -5 16 -5 -1 13 -11 12 -20 15 -25 9
-4 -6 -18 -11 -32 -11 -14 0 -32 -3 -40 -6 -8 -2 -12 -3 -7 -1 10 6 9 23 -2
23 -6 0 -13 -5 -16 -11z"/>
</g>
</svg>
