<svg id="Capa_1" data-name="Capa 1" xmlns="http://www.w3.org/2000/svg" viewBox="0 0 281.08 287.37"><defs><style>.cls-1{fill:#acc912;}.cls-2{fill:#1272b8;}.cls-3{fill:#fdfdfd;}</style></defs><title>Sin título-3</title><path class="cls-1" d="M204,.05c36.5-1.46,67.28,27.17,68.82,64l8.09,141.59c2.88,36.81-24.25,69.05-60.72,72.16l-143,9.53c-36.5,1.46-67.28-27.16-68.81-64L.21,81.74c-2.88-36.81,24.25-69,60.72-72.16h0Z"/><path class="cls-2" d="M199.62,7.9c34.7-2.43,64.82,23.34,67.34,57.61l11.77,131.7c3.79,34.22-21.11,65.06-55.74,69L87.11,279.3c-34.7,2.43-64.83-23.34-67.34-57.61L8,90C4.21,55.77,29.11,24.93,63.73,21h0Z"/><path class="cls-3" d="M249.31,126.6h-7.68l-11.45,6a16.69,16.69,0,0,0-4.07-1.67l-14.4-3.61v-1.63A24,24,0,0,0,222,106.09v-6c0-13.28-10.4-24.39-23.19-24.78-.65,0-1.29,0-1.93,0l3.73-8.74-18.1-18.09-10.66,6.94a57.64,57.64,0,0,0-12.8-5.3l-2.63-12.45h-26l-2.63,12.45a58.08,58.08,0,0,0-12.79,5.31l-10.67-7L86.16,66.64l3.67,8.74c-.14,0-.27,0-.41,0A23.93,23.93,0,0,0,64.76,99.26v6.83A24,24,0,0,0,75,125.7v1.64l-9.39,2.35-17-9.93H37.42v70.82L71,201.79h6.55l.82-2.87,10.3,6.19A10.64,10.64,0,0,0,99,215.42a10.65,10.65,0,0,0,10.26,10.25,10.62,10.62,0,0,0,10.25,10.25,10.62,10.62,0,0,0,16.62,8.44l3,2.68a10.38,10.38,0,0,0,6.87,2.59h.63A10.4,10.4,0,0,0,157,239.37a10.4,10.4,0,0,0,10.25-10.26,10.4,10.4,0,0,0,10.26-10.26,10.5,10.5,0,0,0,10.26-10.49,8.71,8.71,0,0,0,0-1l61.57-30.78Zm-34.18-26.48v6a17.13,17.13,0,0,1-8.55,14.79l-1.71,1v10.81L222,137l-37.58,19.78v-9.21a17,17,0,0,0-4.9-11.91l11.73-2.93V121.86l-1.7-1A17.11,17.11,0,0,1,181,106.09V99.26a17.08,17.08,0,0,1,17.61-17.08C207.7,82.45,215.13,90.5,215.13,100.12ZM148.52,154l-15.47-4.94a42.19,42.19,0,0,0-21.9-1l-2,.44v-1a10.23,10.23,0,0,1,7.76-9.94l19.58-4.9V121.86l-1.71-1a17.12,17.12,0,0,1-8.54-14.78V99.26a17.08,17.08,0,0,1,17.61-17.08c9.13.27,16.56,8.32,16.56,17.94v6a17.16,17.16,0,0,1-8.55,14.79l-1.71,1v10.81l19.58,4.9a10.24,10.24,0,0,1,7.76,9.94v12.81l-.84.44h-2.1l-21-6A21.78,21.78,0,0,0,148.52,154ZM110,88.89a37.57,37.57,0,0,1,66.68-.27,23.83,23.83,0,0,0-2.51,10.64v6.83a24,24,0,0,0,10.26,19.61v1.64l-13.67,3.43L157,127.34v-1.63a24,24,0,0,0,10.26-19.62v-6c0-13.28-10.41-24.39-23.19-24.78a23.95,23.95,0,0,0-24.66,23.92v6.83a24,24,0,0,0,10.25,19.61v1.64L116,130.77l-13.67-3.43v-1.63a24,24,0,0,0,10.26-19.62v-6A25.14,25.14,0,0,0,110,88.89ZM94.24,68.22,105.15,57.3l9.62,6.26,1.83-1.13a51.25,51.25,0,0,1,14.8-6.14l2.11-.5,2.37-11.21h15l2.37,11.21,2.1.5a51,51,0,0,1,14.8,6.14L172,63.55l9.61-6.25,10.91,10.91-3.88,9.08a23.71,23.71,0,0,0-7.21,4.79c-.15.14-.27.29-.4.43a44.38,44.38,0,0,0-75.38.2,24.08,24.08,0,0,0-7.54-5.34ZM81.85,132.68V121.86l-1.71-1a17.13,17.13,0,0,1-8.55-14.78V99.26A17.1,17.1,0,0,1,89.21,82.18c9.13.27,16.56,8.32,16.56,17.94v6a17.16,17.16,0,0,1-8.55,14.79l-1.71,1v10.81l11.73,2.93a17,17,0,0,0-4.9,11.91v2.54l-10.66,2.37.28-1,.13-6.32-18-10.51Zm-37.6-6.08h2.49l24.58,14.33-12.4,49.61-14.67-4.89ZM72.15,195l-6.73-2.24,12-48.19,7.79,4.55v1L72.44,195Zm23.37,9.84a3.82,3.82,0,0,1,1.12-2.71l6-6a3.83,3.83,0,0,1,5.42,5.42l-6,6a3.88,3.88,0,0,1-2.71,1.12A3.84,3.84,0,0,1,95.52,204.79ZM105.77,215a3.88,3.88,0,0,1,1.12-2.71l6-6a3.83,3.83,0,0,1,6.54,2.71,3.9,3.9,0,0,1-1.12,2.71l-6,6a3.83,3.83,0,0,1-6.54-2.71ZM116,225.3a3.86,3.86,0,0,1,1.12-2.71l6-6a3.83,3.83,0,0,1,5.42,5.42l-6,6A3.83,3.83,0,0,1,116,225.3Zm14.09,14.08a3.83,3.83,0,0,1-2.71-6.54l6-6a3.83,3.83,0,0,1,5.42,5.42l-6,6A3.88,3.88,0,0,1,130.11,239.38Zm16.52,3.42H146a3.52,3.52,0,0,1-2.35-.9l-2.56-2.25,2.57-2.57a10.71,10.71,0,0,0,2.15-3.17l3.11,2.58a3.57,3.57,0,0,1-2.29,6.31ZM177.28,212h-.59a3.62,3.62,0,0,1-2.35-.86l-18.53-15.44L151.43,201l18,15a3.56,3.56,0,0,1-2.29,6.3h-.75a3.51,3.51,0,0,1-2.27-.83L145.55,206l-4.38,5.25,18,15a3.56,3.56,0,0,1-2.28,6.29,5.64,5.64,0,0,1-3.6-1.3l-7.63-6.35a10.63,10.63,0,0,0-9.17-6,10.65,10.65,0,0,0-10.26-10.25A10.62,10.62,0,0,0,116,198.41a10.65,10.65,0,0,0-18.17-7.17l-6,6a9.79,9.79,0,0,0-1,1.17l-10.5-6.3,9.2-32.21,23.08-5.13a35.1,35.1,0,0,1,18.33.83l5,1.61-17.07,8.53A11.4,11.4,0,0,0,112.61,176v.68a11.43,11.43,0,0,0,17.33,9.81l12.73-7.63a7.06,7.06,0,0,1,8.2.79l28.87,26a3.68,3.68,0,0,1-2.46,6.41Zm65.19-39.71L184.9,201.12c-.19-.19-.38-.38-.59-.57l-28.87-26A13.76,13.76,0,0,0,139.15,173l-12.73,7.63a4.47,4.47,0,0,1-2.36.66,4.62,4.62,0,0,1-4.62-4.61V176a4.58,4.58,0,0,1,2.55-4.12l19.06-9.54a14.85,14.85,0,0,1,10.66-1l21.47,6.13,5.2.13,64.09-33.73Z"/></svg>