<svg id="Capa_1" data-name="Capa 1" xmlns="http://www.w3.org/2000/svg" viewBox="0 0 281.08 287.37"><defs><style>.cls-1{fill:#acc912;}.cls-2{fill:#1272b8;}.cls-3{fill:#fdfdfd;}</style></defs><title>Sin título-3</title><path class="cls-1" d="M204,.05c36.5-1.46,67.28,27.17,68.82,64l8.09,141.59c2.88,36.81-24.25,69.05-60.72,72.16l-143,9.53c-36.5,1.46-67.28-27.16-68.81-64L.21,81.74c-2.88-36.81,24.25-69,60.72-72.16h0Z"/><path class="cls-2" d="M199.62,7.9c34.7-2.43,64.82,23.34,67.34,57.61l11.77,131.7c3.79,34.22-21.11,65.06-55.74,69L87.11,279.3c-34.7,2.43-64.83-23.34-67.34-57.61L8,90C4.21,55.77,29.11,24.93,63.73,21h0Z"/><path class="cls-3" d="M216.5,40.31H168.76a10.24,10.24,0,0,0-10.23,10.23v6.82a13.65,13.65,0,1,0,0,27.29v17h27.28V94.88a6.82,6.82,0,0,1,13.64,0v6.82H216.5a10.24,10.24,0,0,0,10.23-10.23V50.54A10.24,10.24,0,0,0,216.5,40.31Zm3.41,51.16a3.41,3.41,0,0,1-3.41,3.41H206.27a13.64,13.64,0,0,0-27.28,0H165.35V77.82h-6.82a6.82,6.82,0,1,1,0-13.64h6.82V50.54a3.41,3.41,0,0,1,3.41-3.41H216.5a3.41,3.41,0,0,1,3.41,3.41Z"/><path class="cls-3" d="M158.53,108.52a13.66,13.66,0,0,0-13.65,13.64H131.24v-17h-6.82a6.82,6.82,0,0,1,0-13.64h6.82V60.77H122.1A65.89,65.89,0,0,0,80.38,177.65l13.35,10.92v9.25a10.17,10.17,0,0,0,.75,19.44,10.13,10.13,0,0,0,6.25,13.46,23.86,23.86,0,0,0,47.38,0,10.21,10.21,0,0,0,7-9.66,10.08,10.08,0,0,0-.76-3.81,10.17,10.17,0,0,0,.76-19.44v-9.24l13.34-10.93a65.61,65.61,0,0,0,24.17-51v-4.5H172.17A13.66,13.66,0,0,0,158.53,108.52ZM122.1,67.59h2.32V84.65a13.64,13.64,0,0,0,0,27.28v10.23H110.78a13.64,13.64,0,0,0-27.28,0H63.21A59.14,59.14,0,0,1,122.1,67.59ZM84.7,172.37A58.83,58.83,0,0,1,63.08,129H90.32v-6.82a6.82,6.82,0,0,1,13.64,0V129h20.46v13.64a13.64,13.64,0,1,0,0,27.28v27.29H100.55V185.34Zm39.72,72.56a17.07,17.07,0,0,1-16.7-13.64h33.41A17.09,17.09,0,0,1,124.42,244.93Zm20.46-20.46H104a3.41,3.41,0,1,1,0-6.82h40.92a3.41,3.41,0,0,1,0,6.82Zm6.82-13.64H97.14a3.41,3.41,0,1,1,0-6.82H151.7a3.41,3.41,0,1,1,0,6.82Zm12.45-38.46-15.86,13v11.85h-17V163.08h-6.82a6.82,6.82,0,1,1,0-13.64h6.82V129H151.7v-6.82a6.83,6.83,0,0,1,13.65,0V129h20.41A58.82,58.82,0,0,1,164.15,172.37Z"/></svg>