<svg id="Capa_1" data-name="Capa 1" xmlns="http://www.w3.org/2000/svg" viewBox="0 0 281.08 287.37"><defs><style>.cls-1{fill:#acc912;}.cls-2{fill:#1272b8;}.cls-3{fill:#fff;}</style></defs><title>Sin título-3</title><path class="cls-1" d="M204,.05c36.5-1.46,67.28,27.17,68.82,64l8.09,141.59c2.88,36.81-24.25,69.05-60.72,72.16l-143,9.53c-36.5,1.46-67.28-27.16-68.81-64L.21,81.74c-2.88-36.81,24.25-69,60.72-72.16h0Z"/><path class="cls-2" d="M199.62,7.9c34.7-2.43,64.82,23.34,67.34,57.61l11.77,131.7c3.79,34.22-21.11,65.06-55.74,69L87.11,279.3c-34.7,2.43-64.83-23.34-67.34-57.61L8,90C4.21,55.77,29.11,24.93,63.73,21h0Z"/><path class="cls-3" d="M226,127.3c-7.5-3.75-21.56-3.79-22.15-3.79a3.23,3.23,0,1,0,0,6.46c3.62,0,14.16.55,19.26,3.11A3.23,3.23,0,0,0,226,127.3Z"/><path class="cls-3" d="M242,173.26l-13.33-3.81a1.36,1.36,0,0,1-1-1.3V163.7A23.91,23.91,0,0,0,238.09,144v-6.14l1.28-2.57a20.54,20.54,0,0,0,2.17-9.16V109.48a3.23,3.23,0,0,0-3.23-3.23H207.25a20.51,20.51,0,0,0-20.49,20.49v.19a17.21,17.21,0,0,0,1.8,7.62l1.66,3.3v5.28a25.17,25.17,0,0,0,10.35,20.36v4.66c0,.72,0,1-2.66,1.78l-6.51,1.86L172.58,165a3.2,3.2,0,0,0-.88-2.47l-6-6.32V145.55c.64-.52,1.26-1.06,1.87-1.63a37.86,37.86,0,0,0,11.94-27.54v-8.46A37.34,37.34,0,0,0,183,92.23V57.71a3.23,3.23,0,0,0-3.23-3.22H131.4a30.86,30.86,0,0,0-30.83,30.83v6.91A37.34,37.34,0,0,0,104,107.92v7.28a39.45,39.45,0,0,0,13.8,30.11v10.85l-6,6.32a3.2,3.2,0,0,0-.88,2.47l-19.86,7.22a16.65,16.65,0,0,0-4,2.09L84,172.7c9.28-4,12.23-9.72,12.37-10a3.24,3.24,0,0,0,0-2.88c-2.33-4.66-2.61-13.19-2.84-20-.07-2.28-.15-4.44-.28-6.36-1.1-15.48-12.87-27.16-27.38-27.16s-26.28,11.68-27.38,27.16c-.13,1.92-.21,4.08-.28,6.36-.23,6.85-.51,15.38-2.84,20a3.24,3.24,0,0,0,0,2.88c.14.29,3.08,6,12.38,10L39.05,177a13.53,13.53,0,0,0-7.51,12.15V213A3.23,3.23,0,1,0,38,213V189.17a7.08,7.08,0,0,1,3.94-6.37l10.78-5.39L56.47,181a13.58,13.58,0,0,0,18.72,0l3.75-3.56,3.51,1.75a17.06,17.06,0,0,0-2.59,9V213a3.23,3.23,0,1,0,6.45,0V188.18a10.61,10.61,0,0,1,7-9.94l20.93-7.62,8.72,13.08a6.67,6.67,0,0,0,4.9,2.94c.22,0,.44,0,.67,0a6.64,6.64,0,0,0,4.71-1.95l5.32-5.32V213a3.23,3.23,0,1,0,6.45,0V179.4l5.32,5.32a6.65,6.65,0,0,0,4.72,1.95q.33,0,.66,0a6.66,6.66,0,0,0,4.9-2.94l8.72-13.08,20.94,7.62a10.61,10.61,0,0,1,7,9.94V213a3.23,3.23,0,1,0,6.45,0V188.18a17.06,17.06,0,0,0-4.77-11.81l.8-.23a17.72,17.72,0,0,0,3-1.08l8.24,8.24V213a3.23,3.23,0,1,0,6.46,0V183.3l8.18-8.19a7.94,7.94,0,0,0,1.38.55l13.33,3.81a7.15,7.15,0,0,1,5.16,6.85V213a3.23,3.23,0,0,0,6.46,0v-26.7A13.64,13.64,0,0,0,242,173.26Zm-189.79-5.7c-6-2.18-9.07-5.07-10.36-6.65a36,36,0,0,0,1.84-7.73,24.1,24.1,0,0,0,8.52,10.51Zm18.49,8.73a7.12,7.12,0,0,1-9.82,0l-3-2.85a6.65,6.65,0,0,0,.78-3.15v-3.44a24.08,24.08,0,0,0,14.26,0v3.44a6.65,6.65,0,0,0,.78,3.15Zm-4.91-14.82A17.5,17.5,0,0,1,48.35,144a3.22,3.22,0,0,0-3.23-3.22,4.73,4.73,0,0,0-.53,0l0-.83c.07-2.22.14-4.31.27-6.11a24,24,0,0,1,6.53-15.05,20,20,0,0,1,28.82,0,24,24,0,0,1,6.53,15.05c.13,1.8.2,3.89.27,6.11,0,.19,0,.39,0,.58-3.51-5.41-8.94-9.4-15.94-11.65a40.88,40.88,0,0,0-12.28-2,3.22,3.22,0,0,0-2.23,1l-5.83,6a3.23,3.23,0,0,0,4.65,4.48l4.84-5c4.18.21,17.6,1.77,22.83,13.27A17.44,17.44,0,0,1,65.83,161.47Zm13.58,6.1v-3.85a23.85,23.85,0,0,0,8.52-10.52,35.83,35.83,0,0,0,1.84,7.71C88.49,162.47,85.44,165.4,79.41,167.57Zm31.06-52.37v-8a3.26,3.26,0,0,0-.32-1.4A30.9,30.9,0,0,1,107,92.23V85.32A24.41,24.41,0,0,1,131.4,60.94h45.09V92.23a30.9,30.9,0,0,1-3.13,13.56,3.26,3.26,0,0,0-.32,1.4v9.2a31,31,0,0,1-9.89,22.82,32.43,32.43,0,0,1-2.48,2.1l-.06,0a31,31,0,0,1-20.94,6.25C123.3,146.54,110.47,132.31,110.47,115.2Zm18.18,65a.2.2,0,0,1-.18.06.23.23,0,0,1-.17-.09l-10-15.06,3.23-3.4,15.23,10.41Zm13.11-12.46-17.48-11.94v-6a36.24,36.24,0,0,0,15,4.32c.85.06,1.7.09,2.54.09a37.43,37.43,0,0,0,17.45-4.28v5.9Zm13.45,12.43a.23.23,0,0,1-.16.09.18.18,0,0,1-.18-.06l-8.08-8.08L162,161.66l3.23,3.4Zm58.94-2.73-7.32-7.32a9.43,9.43,0,0,0,.2-1.92v-1.36a22.74,22.74,0,0,0,6.4,1.13h.74a23.9,23.9,0,0,0,7.12-1.08v1.3a7.74,7.74,0,0,0,.23,1.88Zm12.17-20.85a17.38,17.38,0,0,1-12.71,4.93c-9.34-.28-16.94-8.51-16.94-18.34v-6a3.28,3.28,0,0,0-.34-1.44l-2-4a10.65,10.65,0,0,1-1.12-4.73v-.19a14,14,0,0,1,14-14h27.83v13.41a14.1,14.1,0,0,1-1.48,6.27L232,135.65a3.28,3.28,0,0,0-.34,1.44V144A17.32,17.32,0,0,1,226.32,156.54Z"/><path class="cls-3" d="M234.86,189.08a3.23,3.23,0,0,0-3.23,3.23V213a3.23,3.23,0,1,0,6.46,0V192.31A3.23,3.23,0,0,0,234.86,189.08Z"/><path class="cls-3" d="M48.57,193.35a3.23,3.23,0,0,0-3.22,3.23V213a3.23,3.23,0,1,0,6.45,0V196.58A3.23,3.23,0,0,0,48.57,193.35Z"/><path class="cls-3" d="M168.2,93.4C156,81.19,130.45,83.52,120,85.09a6.63,6.63,0,0,0-5.66,6.6v7.44a3.23,3.23,0,0,0,6.46,0V91.69a.22.22,0,0,1,.16-.22,102.63,102.63,0,0,1,21-1c10.07.67,17.36,3.2,21.67,7.51a3.23,3.23,0,1,0,4.57-4.56Z"/><path class="cls-3" d="M103.79,196a3.22,3.22,0,0,0-3.22,3.22V213a3.23,3.23,0,1,0,6.45,0V199.21A3.22,3.22,0,0,0,103.79,196Z"/><path class="cls-3" d="M179.72,196a3.23,3.23,0,0,0-3.23,3.22V213a3.23,3.23,0,0,0,6.46,0V199.21A3.23,3.23,0,0,0,179.72,196Z"/></svg>